<?xml version="1.0" encoding="utf-8" standalone="no"?>
<!DOCTYPE svg PUBLIC "-//W3C//DTD SVG 1.1//EN"
  "http://www.w3.org/Graphics/SVG/1.1/DTD/svg11.dtd">
<!-- Created with matplotlib (https://matplotlib.org/) -->
<svg height="386.034375pt" version="1.1" viewBox="0 0 558.030312 386.034375" width="558.030312pt" xmlns="http://www.w3.org/2000/svg" xmlns:xlink="http://www.w3.org/1999/xlink">
 <defs>
  <style type="text/css">
*{stroke-linecap:butt;stroke-linejoin:round;}
  </style>
 </defs>
 <g id="figure_1">
  <g id="patch_1">
   <path d="M 0 386.034375 
L 558.030312 386.034375 
L 558.030312 0 
L 0 0 
z
" style="fill:#ffffff;"/>
  </g>
  <g id="axes_1">
   <g id="patch_2">
    <path d="M 56.46 170.57267 
L 335.46 170.57267 
L 335.46 22.318125 
L 56.46 22.318125 
z
" style="fill:#ffffff;"/>
   </g>
   <g id="matplotlib.axis_1">
    <g id="xtick_1">
     <g id="line2d_1">
      <path clip-path="url(#p013e5f3bc6)" d="M 98.793662 170.57267 
L 98.793662 22.318125 
" style="fill:none;stroke:#b0b0b0;stroke-linecap:square;stroke-width:0.8;"/>
     </g>
     <g id="line2d_2">
      <defs>
       <path d="M 0 0 
L 0 3.5 
" id="mf008adb101" style="stroke:#000000;stroke-width:0.8;"/>
      </defs>
      <g>
       <use style="stroke:#000000;stroke-width:0.8;" x="98.793662" xlink:href="#mf008adb101" y="170.57267"/>
      </g>
     </g>
    </g>
    <g id="xtick_2">
     <g id="line2d_3">
      <path clip-path="url(#p013e5f3bc6)" d="M 152.669894 170.57267 
L 152.669894 22.318125 
" style="fill:none;stroke:#b0b0b0;stroke-linecap:square;stroke-width:0.8;"/>
     </g>
     <g id="line2d_4">
      <g>
       <use style="stroke:#000000;stroke-width:0.8;" x="152.669894" xlink:href="#mf008adb101" y="170.57267"/>
      </g>
     </g>
    </g>
    <g id="xtick_3">
     <g id="line2d_5">
      <path clip-path="url(#p013e5f3bc6)" d="M 206.546125 170.57267 
L 206.546125 22.318125 
" style="fill:none;stroke:#b0b0b0;stroke-linecap:square;stroke-width:0.8;"/>
     </g>
     <g id="line2d_6">
      <g>
       <use style="stroke:#000000;stroke-width:0.8;" x="206.546125" xlink:href="#mf008adb101" y="170.57267"/>
      </g>
     </g>
    </g>
    <g id="xtick_4">
     <g id="line2d_7">
      <path clip-path="url(#p013e5f3bc6)" d="M 260.422357 170.57267 
L 260.422357 22.318125 
" style="fill:none;stroke:#b0b0b0;stroke-linecap:square;stroke-width:0.8;"/>
     </g>
     <g id="line2d_8">
      <g>
       <use style="stroke:#000000;stroke-width:0.8;" x="260.422357" xlink:href="#mf008adb101" y="170.57267"/>
      </g>
     </g>
    </g>
    <g id="xtick_5">
     <g id="line2d_9">
      <path clip-path="url(#p013e5f3bc6)" d="M 314.298588 170.57267 
L 314.298588 22.318125 
" style="fill:none;stroke:#b0b0b0;stroke-linecap:square;stroke-width:0.8;"/>
     </g>
     <g id="line2d_10">
      <g>
       <use style="stroke:#000000;stroke-width:0.8;" x="314.298588" xlink:href="#mf008adb101" y="170.57267"/>
      </g>
     </g>
    </g>
    <g id="text_1">
     <!-- Temperature (K) -->
     <defs>
      <path d="M -0.296875 72.90625 
L 61.375 72.90625 
L 61.375 64.59375 
L 35.5 64.59375 
L 35.5 0 
L 25.59375 0 
L 25.59375 64.59375 
L -0.296875 64.59375 
z
" id="DejaVuSans-84"/>
      <path d="M 56.203125 29.59375 
L 56.203125 25.203125 
L 14.890625 25.203125 
Q 15.484375 15.921875 20.484375 11.0625 
Q 25.484375 6.203125 34.421875 6.203125 
Q 39.59375 6.203125 44.453125 7.46875 
Q 49.3125 8.734375 54.109375 11.28125 
L 54.109375 2.78125 
Q 49.265625 0.734375 44.1875 -0.34375 
Q 39.109375 -1.421875 33.890625 -1.421875 
Q 20.796875 -1.421875 13.15625 6.1875 
Q 5.515625 13.8125 5.515625 26.8125 
Q 5.515625 40.234375 12.765625 48.109375 
Q 20.015625 56 32.328125 56 
Q 43.359375 56 49.78125 48.890625 
Q 56.203125 41.796875 56.203125 29.59375 
z
M 47.21875 32.234375 
Q 47.125 39.59375 43.09375 43.984375 
Q 39.0625 48.390625 32.421875 48.390625 
Q 24.90625 48.390625 20.390625 44.140625 
Q 15.875 39.890625 15.1875 32.171875 
z
" id="DejaVuSans-101"/>
      <path d="M 52 44.1875 
Q 55.375 50.25 60.0625 53.125 
Q 64.75 56 71.09375 56 
Q 79.640625 56 84.28125 50.015625 
Q 88.921875 44.046875 88.921875 33.015625 
L 88.921875 0 
L 79.890625 0 
L 79.890625 32.71875 
Q 79.890625 40.578125 77.09375 44.375 
Q 74.3125 48.1875 68.609375 48.1875 
Q 61.625 48.1875 57.5625 43.546875 
Q 53.515625 38.921875 53.515625 30.90625 
L 53.515625 0 
L 44.484375 0 
L 44.484375 32.71875 
Q 44.484375 40.625 41.703125 44.40625 
Q 38.921875 48.1875 33.109375 48.1875 
Q 26.21875 48.1875 22.15625 43.53125 
Q 18.109375 38.875 18.109375 30.90625 
L 18.109375 0 
L 9.078125 0 
L 9.078125 54.6875 
L 18.109375 54.6875 
L 18.109375 46.1875 
Q 21.1875 51.21875 25.484375 53.609375 
Q 29.78125 56 35.6875 56 
Q 41.65625 56 45.828125 52.96875 
Q 50 49.953125 52 44.1875 
z
" id="DejaVuSans-109"/>
      <path d="M 18.109375 8.203125 
L 18.109375 -20.796875 
L 9.078125 -20.796875 
L 9.078125 54.6875 
L 18.109375 54.6875 
L 18.109375 46.390625 
Q 20.953125 51.265625 25.265625 53.625 
Q 29.59375 56 35.59375 56 
Q 45.5625 56 51.78125 48.09375 
Q 58.015625 40.1875 58.015625 27.296875 
Q 58.015625 14.40625 51.78125 6.484375 
Q 45.5625 -1.421875 35.59375 -1.421875 
Q 29.59375 -1.421875 25.265625 0.953125 
Q 20.953125 3.328125 18.109375 8.203125 
z
M 48.6875 27.296875 
Q 48.6875 37.203125 44.609375 42.84375 
Q 40.53125 48.484375 33.40625 48.484375 
Q 26.265625 48.484375 22.1875 42.84375 
Q 18.109375 37.203125 18.109375 27.296875 
Q 18.109375 17.390625 22.1875 11.75 
Q 26.265625 6.109375 33.40625 6.109375 
Q 40.53125 6.109375 44.609375 11.75 
Q 48.6875 17.390625 48.6875 27.296875 
z
" id="DejaVuSans-112"/>
      <path d="M 41.109375 46.296875 
Q 39.59375 47.171875 37.8125 47.578125 
Q 36.03125 48 33.890625 48 
Q 26.265625 48 22.1875 43.046875 
Q 18.109375 38.09375 18.109375 28.8125 
L 18.109375 0 
L 9.078125 0 
L 9.078125 54.6875 
L 18.109375 54.6875 
L 18.109375 46.1875 
Q 20.953125 51.171875 25.484375 53.578125 
Q 30.03125 56 36.53125 56 
Q 37.453125 56 38.578125 55.875 
Q 39.703125 55.765625 41.0625 55.515625 
z
" id="DejaVuSans-114"/>
      <path d="M 34.28125 27.484375 
Q 23.390625 27.484375 19.1875 25 
Q 14.984375 22.515625 14.984375 16.5 
Q 14.984375 11.71875 18.140625 8.90625 
Q 21.296875 6.109375 26.703125 6.109375 
Q 34.1875 6.109375 38.703125 11.40625 
Q 43.21875 16.703125 43.21875 25.484375 
L 43.21875 27.484375 
z
M 52.203125 31.203125 
L 52.203125 0 
L 43.21875 0 
L 43.21875 8.296875 
Q 40.140625 3.328125 35.546875 0.953125 
Q 30.953125 -1.421875 24.3125 -1.421875 
Q 15.921875 -1.421875 10.953125 3.296875 
Q 6 8.015625 6 15.921875 
Q 6 25.140625 12.171875 29.828125 
Q 18.359375 34.515625 30.609375 34.515625 
L 43.21875 34.515625 
L 43.21875 35.40625 
Q 43.21875 41.609375 39.140625 45 
Q 35.0625 48.390625 27.6875 48.390625 
Q 23 48.390625 18.546875 47.265625 
Q 14.109375 46.140625 10.015625 43.890625 
L 10.015625 52.203125 
Q 14.9375 54.109375 19.578125 55.046875 
Q 24.21875 56 28.609375 56 
Q 40.484375 56 46.34375 49.84375 
Q 52.203125 43.703125 52.203125 31.203125 
z
" id="DejaVuSans-97"/>
      <path d="M 18.3125 70.21875 
L 18.3125 54.6875 
L 36.8125 54.6875 
L 36.8125 47.703125 
L 18.3125 47.703125 
L 18.3125 18.015625 
Q 18.3125 11.328125 20.140625 9.421875 
Q 21.96875 7.515625 27.59375 7.515625 
L 36.8125 7.515625 
L 36.8125 0 
L 27.59375 0 
Q 17.1875 0 13.234375 3.875 
Q 9.28125 7.765625 9.28125 18.015625 
L 9.28125 47.703125 
L 2.6875 47.703125 
L 2.6875 54.6875 
L 9.28125 54.6875 
L 9.28125 70.21875 
z
" id="DejaVuSans-116"/>
      <path d="M 8.5 21.578125 
L 8.5 54.6875 
L 17.484375 54.6875 
L 17.484375 21.921875 
Q 17.484375 14.15625 20.5 10.265625 
Q 23.53125 6.390625 29.59375 6.390625 
Q 36.859375 6.390625 41.078125 11.03125 
Q 45.3125 15.671875 45.3125 23.6875 
L 45.3125 54.6875 
L 54.296875 54.6875 
L 54.296875 0 
L 45.3125 0 
L 45.3125 8.40625 
Q 42.046875 3.421875 37.71875 1 
Q 33.40625 -1.421875 27.6875 -1.421875 
Q 18.265625 -1.421875 13.375 4.4375 
Q 8.5 10.296875 8.5 21.578125 
z
M 31.109375 56 
z
" id="DejaVuSans-117"/>
      <path id="DejaVuSans-32"/>
      <path d="M 31 75.875 
Q 24.46875 64.65625 21.28125 53.65625 
Q 18.109375 42.671875 18.109375 31.390625 
Q 18.109375 20.125 21.3125 9.0625 
Q 24.515625 -2 31 -13.1875 
L 23.1875 -13.1875 
Q 15.875 -1.703125 12.234375 9.375 
Q 8.59375 20.453125 8.59375 31.390625 
Q 8.59375 42.28125 12.203125 53.3125 
Q 15.828125 64.359375 23.1875 75.875 
z
" id="DejaVuSans-40"/>
      <path d="M 9.8125 72.90625 
L 19.671875 72.90625 
L 19.671875 42.09375 
L 52.390625 72.90625 
L 65.09375 72.90625 
L 28.90625 38.921875 
L 67.671875 0 
L 54.6875 0 
L 19.671875 35.109375 
L 19.671875 0 
L 9.8125 0 
z
" id="DejaVuSans-75"/>
      <path d="M 8.015625 75.875 
L 15.828125 75.875 
Q 23.140625 64.359375 26.78125 53.3125 
Q 30.421875 42.28125 30.421875 31.390625 
Q 30.421875 20.453125 26.78125 9.375 
Q 23.140625 -1.703125 15.828125 -13.1875 
L 8.015625 -13.1875 
Q 14.5 -2 17.703125 9.0625 
Q 20.90625 20.125 20.90625 31.390625 
Q 20.90625 42.671875 17.703125 53.65625 
Q 14.5 64.65625 8.015625 75.875 
z
" id="DejaVuSans-41"/>
     </defs>
     <g transform="translate(154.573281 182.171108)scale(0.1 -0.1)">
      <use xlink:href="#DejaVuSans-84"/>
      <use x="60.818359" xlink:href="#DejaVuSans-101"/>
      <use x="122.341797" xlink:href="#DejaVuSans-109"/>
      <use x="219.753906" xlink:href="#DejaVuSans-112"/>
      <use x="283.230469" xlink:href="#DejaVuSans-101"/>
      <use x="344.753906" xlink:href="#DejaVuSans-114"/>
      <use x="385.867188" xlink:href="#DejaVuSans-97"/>
      <use x="447.146484" xlink:href="#DejaVuSans-116"/>
      <use x="486.355469" xlink:href="#DejaVuSans-117"/>
      <use x="549.734375" xlink:href="#DejaVuSans-114"/>
      <use x="590.816406" xlink:href="#DejaVuSans-101"/>
      <use x="652.339844" xlink:href="#DejaVuSans-32"/>
      <use x="684.126953" xlink:href="#DejaVuSans-40"/>
      <use x="723.140625" xlink:href="#DejaVuSans-75"/>
      <use x="788.716797" xlink:href="#DejaVuSans-41"/>
     </g>
    </g>
   </g>
   <g id="matplotlib.axis_2">
    <g id="ytick_1">
     <g id="line2d_11">
      <path clip-path="url(#p013e5f3bc6)" d="M 56.46 165.113565 
L 335.46 165.113565 
" style="fill:none;stroke:#b0b0b0;stroke-linecap:square;stroke-width:0.8;"/>
     </g>
     <g id="line2d_12">
      <defs>
       <path d="M 0 0 
L -3.5 0 
" id="m667c690ba9" style="stroke:#000000;stroke-width:0.8;"/>
      </defs>
      <g>
       <use style="stroke:#000000;stroke-width:0.8;" x="56.46" xlink:href="#m667c690ba9" y="165.113565"/>
      </g>
     </g>
     <g id="text_2">
      <!-- 0.00 -->
      <defs>
       <path d="M 31.78125 66.40625 
Q 24.171875 66.40625 20.328125 58.90625 
Q 16.5 51.421875 16.5 36.375 
Q 16.5 21.390625 20.328125 13.890625 
Q 24.171875 6.390625 31.78125 6.390625 
Q 39.453125 6.390625 43.28125 13.890625 
Q 47.125 21.390625 47.125 36.375 
Q 47.125 51.421875 43.28125 58.90625 
Q 39.453125 66.40625 31.78125 66.40625 
z
M 31.78125 74.21875 
Q 44.046875 74.21875 50.515625 64.515625 
Q 56.984375 54.828125 56.984375 36.375 
Q 56.984375 17.96875 50.515625 8.265625 
Q 44.046875 -1.421875 31.78125 -1.421875 
Q 19.53125 -1.421875 13.0625 8.265625 
Q 6.59375 17.96875 6.59375 36.375 
Q 6.59375 54.828125 13.0625 64.515625 
Q 19.53125 74.21875 31.78125 74.21875 
z
" id="DejaVuSans-48"/>
       <path d="M 10.6875 12.40625 
L 21 12.40625 
L 21 0 
L 10.6875 0 
z
" id="DejaVuSans-46"/>
      </defs>
      <g transform="translate(27.194375 168.912784)scale(0.1 -0.1)">
       <use xlink:href="#DejaVuSans-48"/>
       <use x="63.623047" xlink:href="#DejaVuSans-46"/>
       <use x="95.410156" xlink:href="#DejaVuSans-48"/>
       <use x="159.033203" xlink:href="#DejaVuSans-48"/>
      </g>
     </g>
    </g>
    <g id="ytick_2">
     <g id="line2d_13">
      <path clip-path="url(#p013e5f3bc6)" d="M 56.46 143.117406 
L 335.46 143.117406 
" style="fill:none;stroke:#b0b0b0;stroke-linecap:square;stroke-width:0.8;"/>
     </g>
     <g id="line2d_14">
      <g>
       <use style="stroke:#000000;stroke-width:0.8;" x="56.46" xlink:href="#m667c690ba9" y="143.117406"/>
      </g>
     </g>
     <g id="text_3">
      <!-- 0.05 -->
      <defs>
       <path d="M 10.796875 72.90625 
L 49.515625 72.90625 
L 49.515625 64.59375 
L 19.828125 64.59375 
L 19.828125 46.734375 
Q 21.96875 47.46875 24.109375 47.828125 
Q 26.265625 48.1875 28.421875 48.1875 
Q 40.625 48.1875 47.75 41.5 
Q 54.890625 34.8125 54.890625 23.390625 
Q 54.890625 11.625 47.5625 5.09375 
Q 40.234375 -1.421875 26.90625 -1.421875 
Q 22.3125 -1.421875 17.546875 -0.640625 
Q 12.796875 0.140625 7.71875 1.703125 
L 7.71875 11.625 
Q 12.109375 9.234375 16.796875 8.0625 
Q 21.484375 6.890625 26.703125 6.890625 
Q 35.15625 6.890625 40.078125 11.328125 
Q 45.015625 15.765625 45.015625 23.390625 
Q 45.015625 31 40.078125 35.4375 
Q 35.15625 39.890625 26.703125 39.890625 
Q 22.75 39.890625 18.8125 39.015625 
Q 14.890625 38.140625 10.796875 36.28125 
z
" id="DejaVuSans-53"/>
      </defs>
      <g transform="translate(27.194375 146.916625)scale(0.1 -0.1)">
       <use xlink:href="#DejaVuSans-48"/>
       <use x="63.623047" xlink:href="#DejaVuSans-46"/>
       <use x="95.410156" xlink:href="#DejaVuSans-48"/>
       <use x="159.033203" xlink:href="#DejaVuSans-53"/>
      </g>
     </g>
    </g>
    <g id="ytick_3">
     <g id="line2d_15">
      <path clip-path="url(#p013e5f3bc6)" d="M 56.46 121.121248 
L 335.46 121.121248 
" style="fill:none;stroke:#b0b0b0;stroke-linecap:square;stroke-width:0.8;"/>
     </g>
     <g id="line2d_16">
      <g>
       <use style="stroke:#000000;stroke-width:0.8;" x="56.46" xlink:href="#m667c690ba9" y="121.121248"/>
      </g>
     </g>
     <g id="text_4">
      <!-- 0.10 -->
      <defs>
       <path d="M 12.40625 8.296875 
L 28.515625 8.296875 
L 28.515625 63.921875 
L 10.984375 60.40625 
L 10.984375 69.390625 
L 28.421875 72.90625 
L 38.28125 72.90625 
L 38.28125 8.296875 
L 54.390625 8.296875 
L 54.390625 0 
L 12.40625 0 
z
" id="DejaVuSans-49"/>
      </defs>
      <g transform="translate(27.194375 124.920466)scale(0.1 -0.1)">
       <use xlink:href="#DejaVuSans-48"/>
       <use x="63.623047" xlink:href="#DejaVuSans-46"/>
       <use x="95.410156" xlink:href="#DejaVuSans-49"/>
       <use x="159.033203" xlink:href="#DejaVuSans-48"/>
      </g>
     </g>
    </g>
    <g id="ytick_4">
     <g id="line2d_17">
      <path clip-path="url(#p013e5f3bc6)" d="M 56.46 99.125089 
L 335.46 99.125089 
" style="fill:none;stroke:#b0b0b0;stroke-linecap:square;stroke-width:0.8;"/>
     </g>
     <g id="line2d_18">
      <g>
       <use style="stroke:#000000;stroke-width:0.8;" x="56.46" xlink:href="#m667c690ba9" y="99.125089"/>
      </g>
     </g>
     <g id="text_5">
      <!-- 0.15 -->
      <g transform="translate(27.194375 102.924308)scale(0.1 -0.1)">
       <use xlink:href="#DejaVuSans-48"/>
       <use x="63.623047" xlink:href="#DejaVuSans-46"/>
       <use x="95.410156" xlink:href="#DejaVuSans-49"/>
       <use x="159.033203" xlink:href="#DejaVuSans-53"/>
      </g>
     </g>
    </g>
    <g id="ytick_5">
     <g id="line2d_19">
      <path clip-path="url(#p013e5f3bc6)" d="M 56.46 77.128931 
L 335.46 77.128931 
" style="fill:none;stroke:#b0b0b0;stroke-linecap:square;stroke-width:0.8;"/>
     </g>
     <g id="line2d_20">
      <g>
       <use style="stroke:#000000;stroke-width:0.8;" x="56.46" xlink:href="#m667c690ba9" y="77.128931"/>
      </g>
     </g>
     <g id="text_6">
      <!-- 0.20 -->
      <defs>
       <path d="M 19.1875 8.296875 
L 53.609375 8.296875 
L 53.609375 0 
L 7.328125 0 
L 7.328125 8.296875 
Q 12.9375 14.109375 22.625 23.890625 
Q 32.328125 33.6875 34.8125 36.53125 
Q 39.546875 41.84375 41.421875 45.53125 
Q 43.3125 49.21875 43.3125 52.78125 
Q 43.3125 58.59375 39.234375 62.25 
Q 35.15625 65.921875 28.609375 65.921875 
Q 23.96875 65.921875 18.8125 64.3125 
Q 13.671875 62.703125 7.8125 59.421875 
L 7.8125 69.390625 
Q 13.765625 71.78125 18.9375 73 
Q 24.125 74.21875 28.421875 74.21875 
Q 39.75 74.21875 46.484375 68.546875 
Q 53.21875 62.890625 53.21875 53.421875 
Q 53.21875 48.921875 51.53125 44.890625 
Q 49.859375 40.875 45.40625 35.40625 
Q 44.1875 33.984375 37.640625 27.21875 
Q 31.109375 20.453125 19.1875 8.296875 
z
" id="DejaVuSans-50"/>
      </defs>
      <g transform="translate(27.194375 80.928149)scale(0.1 -0.1)">
       <use xlink:href="#DejaVuSans-48"/>
       <use x="63.623047" xlink:href="#DejaVuSans-46"/>
       <use x="95.410156" xlink:href="#DejaVuSans-50"/>
       <use x="159.033203" xlink:href="#DejaVuSans-48"/>
      </g>
     </g>
    </g>
    <g id="ytick_6">
     <g id="line2d_21">
      <path clip-path="url(#p013e5f3bc6)" d="M 56.46 55.132772 
L 335.46 55.132772 
" style="fill:none;stroke:#b0b0b0;stroke-linecap:square;stroke-width:0.8;"/>
     </g>
     <g id="line2d_22">
      <g>
       <use style="stroke:#000000;stroke-width:0.8;" x="56.46" xlink:href="#m667c690ba9" y="55.132772"/>
      </g>
     </g>
     <g id="text_7">
      <!-- 0.25 -->
      <g transform="translate(27.194375 58.931991)scale(0.1 -0.1)">
       <use xlink:href="#DejaVuSans-48"/>
       <use x="63.623047" xlink:href="#DejaVuSans-46"/>
       <use x="95.410156" xlink:href="#DejaVuSans-50"/>
       <use x="159.033203" xlink:href="#DejaVuSans-53"/>
      </g>
     </g>
    </g>
    <g id="ytick_7">
     <g id="line2d_23">
      <path clip-path="url(#p013e5f3bc6)" d="M 56.46 33.136613 
L 335.46 33.136613 
" style="fill:none;stroke:#b0b0b0;stroke-linecap:square;stroke-width:0.8;"/>
     </g>
     <g id="line2d_24">
      <g>
       <use style="stroke:#000000;stroke-width:0.8;" x="56.46" xlink:href="#m667c690ba9" y="33.136613"/>
      </g>
     </g>
     <g id="text_8">
      <!-- 0.30 -->
      <defs>
       <path d="M 40.578125 39.3125 
Q 47.65625 37.796875 51.625 33 
Q 55.609375 28.21875 55.609375 21.1875 
Q 55.609375 10.40625 48.1875 4.484375 
Q 40.765625 -1.421875 27.09375 -1.421875 
Q 22.515625 -1.421875 17.65625 -0.515625 
Q 12.796875 0.390625 7.625 2.203125 
L 7.625 11.71875 
Q 11.71875 9.328125 16.59375 8.109375 
Q 21.484375 6.890625 26.8125 6.890625 
Q 36.078125 6.890625 40.9375 10.546875 
Q 45.796875 14.203125 45.796875 21.1875 
Q 45.796875 27.640625 41.28125 31.265625 
Q 36.765625 34.90625 28.71875 34.90625 
L 20.21875 34.90625 
L 20.21875 43.015625 
L 29.109375 43.015625 
Q 36.375 43.015625 40.234375 45.921875 
Q 44.09375 48.828125 44.09375 54.296875 
Q 44.09375 59.90625 40.109375 62.90625 
Q 36.140625 65.921875 28.71875 65.921875 
Q 24.65625 65.921875 20.015625 65.03125 
Q 15.375 64.15625 9.8125 62.3125 
L 9.8125 71.09375 
Q 15.4375 72.65625 20.34375 73.4375 
Q 25.25 74.21875 29.59375 74.21875 
Q 40.828125 74.21875 47.359375 69.109375 
Q 53.90625 64.015625 53.90625 55.328125 
Q 53.90625 49.265625 50.4375 45.09375 
Q 46.96875 40.921875 40.578125 39.3125 
z
" id="DejaVuSans-51"/>
      </defs>
      <g transform="translate(27.194375 36.935832)scale(0.1 -0.1)">
       <use xlink:href="#DejaVuSans-48"/>
       <use x="63.623047" xlink:href="#DejaVuSans-46"/>
       <use x="95.410156" xlink:href="#DejaVuSans-51"/>
       <use x="159.033203" xlink:href="#DejaVuSans-48"/>
      </g>
     </g>
    </g>
    <g id="text_9">
     <!-- Liquid Cloud Fraction -->
     <defs>
      <path d="M 9.8125 72.90625 
L 19.671875 72.90625 
L 19.671875 8.296875 
L 55.171875 8.296875 
L 55.171875 0 
L 9.8125 0 
z
" id="DejaVuSans-76"/>
      <path d="M 9.421875 54.6875 
L 18.40625 54.6875 
L 18.40625 0 
L 9.421875 0 
z
M 9.421875 75.984375 
L 18.40625 75.984375 
L 18.40625 64.59375 
L 9.421875 64.59375 
z
" id="DejaVuSans-105"/>
      <path d="M 14.796875 27.296875 
Q 14.796875 17.390625 18.875 11.75 
Q 22.953125 6.109375 30.078125 6.109375 
Q 37.203125 6.109375 41.296875 11.75 
Q 45.40625 17.390625 45.40625 27.296875 
Q 45.40625 37.203125 41.296875 42.84375 
Q 37.203125 48.484375 30.078125 48.484375 
Q 22.953125 48.484375 18.875 42.84375 
Q 14.796875 37.203125 14.796875 27.296875 
z
M 45.40625 8.203125 
Q 42.578125 3.328125 38.25 0.953125 
Q 33.9375 -1.421875 27.875 -1.421875 
Q 17.96875 -1.421875 11.734375 6.484375 
Q 5.515625 14.40625 5.515625 27.296875 
Q 5.515625 40.1875 11.734375 48.09375 
Q 17.96875 56 27.875 56 
Q 33.9375 56 38.25 53.625 
Q 42.578125 51.265625 45.40625 46.390625 
L 45.40625 54.6875 
L 54.390625 54.6875 
L 54.390625 -20.796875 
L 45.40625 -20.796875 
z
" id="DejaVuSans-113"/>
      <path d="M 45.40625 46.390625 
L 45.40625 75.984375 
L 54.390625 75.984375 
L 54.390625 0 
L 45.40625 0 
L 45.40625 8.203125 
Q 42.578125 3.328125 38.25 0.953125 
Q 33.9375 -1.421875 27.875 -1.421875 
Q 17.96875 -1.421875 11.734375 6.484375 
Q 5.515625 14.40625 5.515625 27.296875 
Q 5.515625 40.1875 11.734375 48.09375 
Q 17.96875 56 27.875 56 
Q 33.9375 56 38.25 53.625 
Q 42.578125 51.265625 45.40625 46.390625 
z
M 14.796875 27.296875 
Q 14.796875 17.390625 18.875 11.75 
Q 22.953125 6.109375 30.078125 6.109375 
Q 37.203125 6.109375 41.296875 11.75 
Q 45.40625 17.390625 45.40625 27.296875 
Q 45.40625 37.203125 41.296875 42.84375 
Q 37.203125 48.484375 30.078125 48.484375 
Q 22.953125 48.484375 18.875 42.84375 
Q 14.796875 37.203125 14.796875 27.296875 
z
" id="DejaVuSans-100"/>
      <path d="M 64.40625 67.28125 
L 64.40625 56.890625 
Q 59.421875 61.53125 53.78125 63.8125 
Q 48.140625 66.109375 41.796875 66.109375 
Q 29.296875 66.109375 22.65625 58.46875 
Q 16.015625 50.828125 16.015625 36.375 
Q 16.015625 21.96875 22.65625 14.328125 
Q 29.296875 6.6875 41.796875 6.6875 
Q 48.140625 6.6875 53.78125 8.984375 
Q 59.421875 11.28125 64.40625 15.921875 
L 64.40625 5.609375 
Q 59.234375 2.09375 53.4375 0.328125 
Q 47.65625 -1.421875 41.21875 -1.421875 
Q 24.65625 -1.421875 15.125 8.703125 
Q 5.609375 18.84375 5.609375 36.375 
Q 5.609375 53.953125 15.125 64.078125 
Q 24.65625 74.21875 41.21875 74.21875 
Q 47.75 74.21875 53.53125 72.484375 
Q 59.328125 70.75 64.40625 67.28125 
z
" id="DejaVuSans-67"/>
      <path d="M 9.421875 75.984375 
L 18.40625 75.984375 
L 18.40625 0 
L 9.421875 0 
z
" id="DejaVuSans-108"/>
      <path d="M 30.609375 48.390625 
Q 23.390625 48.390625 19.1875 42.75 
Q 14.984375 37.109375 14.984375 27.296875 
Q 14.984375 17.484375 19.15625 11.84375 
Q 23.34375 6.203125 30.609375 6.203125 
Q 37.796875 6.203125 41.984375 11.859375 
Q 46.1875 17.53125 46.1875 27.296875 
Q 46.1875 37.015625 41.984375 42.703125 
Q 37.796875 48.390625 30.609375 48.390625 
z
M 30.609375 56 
Q 42.328125 56 49.015625 48.375 
Q 55.71875 40.765625 55.71875 27.296875 
Q 55.71875 13.875 49.015625 6.21875 
Q 42.328125 -1.421875 30.609375 -1.421875 
Q 18.84375 -1.421875 12.171875 6.21875 
Q 5.515625 13.875 5.515625 27.296875 
Q 5.515625 40.765625 12.171875 48.375 
Q 18.84375 56 30.609375 56 
z
" id="DejaVuSans-111"/>
      <path d="M 9.8125 72.90625 
L 51.703125 72.90625 
L 51.703125 64.59375 
L 19.671875 64.59375 
L 19.671875 43.109375 
L 48.578125 43.109375 
L 48.578125 34.8125 
L 19.671875 34.8125 
L 19.671875 0 
L 9.8125 0 
z
" id="DejaVuSans-70"/>
      <path d="M 48.78125 52.59375 
L 48.78125 44.1875 
Q 44.96875 46.296875 41.140625 47.34375 
Q 37.3125 48.390625 33.40625 48.390625 
Q 24.65625 48.390625 19.8125 42.84375 
Q 14.984375 37.3125 14.984375 27.296875 
Q 14.984375 17.28125 19.8125 11.734375 
Q 24.65625 6.203125 33.40625 6.203125 
Q 37.3125 6.203125 41.140625 7.25 
Q 44.96875 8.296875 48.78125 10.40625 
L 48.78125 2.09375 
Q 45.015625 0.34375 40.984375 -0.53125 
Q 36.96875 -1.421875 32.421875 -1.421875 
Q 20.0625 -1.421875 12.78125 6.34375 
Q 5.515625 14.109375 5.515625 27.296875 
Q 5.515625 40.671875 12.859375 48.328125 
Q 20.21875 56 33.015625 56 
Q 37.15625 56 41.109375 55.140625 
Q 45.0625 54.296875 48.78125 52.59375 
z
" id="DejaVuSans-99"/>
      <path d="M 54.890625 33.015625 
L 54.890625 0 
L 45.90625 0 
L 45.90625 32.71875 
Q 45.90625 40.484375 42.875 44.328125 
Q 39.84375 48.1875 33.796875 48.1875 
Q 26.515625 48.1875 22.3125 43.546875 
Q 18.109375 38.921875 18.109375 30.90625 
L 18.109375 0 
L 9.078125 0 
L 9.078125 54.6875 
L 18.109375 54.6875 
L 18.109375 46.1875 
Q 21.34375 51.125 25.703125 53.5625 
Q 30.078125 56 35.796875 56 
Q 45.21875 56 50.046875 50.171875 
Q 54.890625 44.34375 54.890625 33.015625 
z
" id="DejaVuSans-110"/>
     </defs>
     <g transform="translate(21.114687 149.303991)rotate(-90)scale(0.1 -0.1)">
      <use xlink:href="#DejaVuSans-76"/>
      <use x="55.712891" xlink:href="#DejaVuSans-105"/>
      <use x="83.496094" xlink:href="#DejaVuSans-113"/>
      <use x="146.972656" xlink:href="#DejaVuSans-117"/>
      <use x="210.351562" xlink:href="#DejaVuSans-105"/>
      <use x="238.134766" xlink:href="#DejaVuSans-100"/>
      <use x="301.611328" xlink:href="#DejaVuSans-32"/>
      <use x="333.398438" xlink:href="#DejaVuSans-67"/>
      <use x="403.222656" xlink:href="#DejaVuSans-108"/>
      <use x="431.005859" xlink:href="#DejaVuSans-111"/>
      <use x="492.1875" xlink:href="#DejaVuSans-117"/>
      <use x="555.566406" xlink:href="#DejaVuSans-100"/>
      <use x="619.042969" xlink:href="#DejaVuSans-32"/>
      <use x="650.830078" xlink:href="#DejaVuSans-70"/>
      <use x="708.240234" xlink:href="#DejaVuSans-114"/>
      <use x="749.353516" xlink:href="#DejaVuSans-97"/>
      <use x="810.632812" xlink:href="#DejaVuSans-99"/>
      <use x="865.613281" xlink:href="#DejaVuSans-116"/>
      <use x="904.822266" xlink:href="#DejaVuSans-105"/>
      <use x="932.605469" xlink:href="#DejaVuSans-111"/>
      <use x="993.787109" xlink:href="#DejaVuSans-110"/>
     </g>
    </g>
   </g>
   <g id="line2d_25">
    <path clip-path="url(#p013e5f3bc6)" d="M 322.778182 141.445493 
L 319.44047 133.343196 
L 316.290102 120.165841 
L 313.289093 107.461067 
L 310.659889 88.202926 
L 308.099269 79.882696 
L 305.792105 72.247131 
L 303.526864 72.130899 
L 301.227302 71.376962 
L 298.740699 75.944807 
L 296.144812 82.321381 
L 293.378153 89.069503 
L 290.472091 97.101771 
L 287.449876 104.255327 
L 284.262674 111.930546 
L 280.949134 117.858708 
L 277.490725 123.865331 
L 273.951932 128.490056 
L 270.341 133.00343 
L 266.635854 136.446799 
L 262.906209 139.667009 
L 259.129025 142.233282 
L 255.303238 144.653682 
L 251.083297 148.626622 
L 243.101843 148.982848 
L 234.97725 151.742022 
L 227.150612 153.35029 
L 219.876589 153.956565 
L 212.805798 155.323527 
L 205.423924 156.264149 
L 197.781897 157.070356 
L 190.025007 157.730523 
L 182.08947 158.282786 
L 173.909585 158.891597 
L 165.652227 159.580204 
L 157.296247 160.222968 
L 148.825093 160.775547 
L 140.307073 161.302095 
L 131.801558 161.770588 
" style="fill:none;stroke:#ff0000;stroke-dasharray:1.5,2.475;stroke-dashoffset:0;stroke-width:1.5;"/>
   </g>
   <g id="line2d_26">
    <path clip-path="url(#p013e5f3bc6)" d="M 106.875097 158.207159 
L 123.037966 156.137781 
L 139.200836 154.514547 
L 155.363705 152.771582 
L 171.526575 150.815494 
L 187.689444 147.621441 
L 203.852314 140.490323 
L 220.015183 134.610247 
L 236.178053 132.661051 
L 252.340922 129.932606 
L 268.503791 123.8971 
L 284.666661 85.151026 
L 300.82953 75.669003 
L 316.9924 63.944587 
" style="fill:none;stroke:#0000ff;stroke-dasharray:1.5,2.475;stroke-dashoffset:0;stroke-width:1.5;"/>
   </g>
   <g id="line2d_27">
    <path clip-path="url(#p013e5f3bc6)" d="M 75.59369 163.833827 
L 110.386658 160.729356 
L 141.352865 153.358131 
L 168.425136 143.220044 
L 192.008502 135.931589 
L 212.32468 136.508862 
L 229.983933 134.846342 
L 245.858257 129.130144 
L 260.529331 123.515907 
L 267.241032 120.55425 
L 273.477928 116.547317 
L 279.129466 110.392807 
L 284.300473 103.356333 
L 289.270438 97.883827 
L 294.329876 95.938782 
L 299.630524 99.187488 
L 305.316353 111.703926 
L 311.922729 127.868535 
L 319.631049 140.78781 
" style="fill:none;stroke:#000000;stroke-linecap:square;stroke-width:1.5;"/>
   </g>
   <g id="line2d_28">
    <path clip-path="url(#p013e5f3bc6)" d="M 316.37292 131.532706 
L 313.980695 126.589443 
L 311.337335 121.459991 
L 308.46706 112.638647 
L 305.389959 105.714295 
L 302.076297 102.076246 
L 298.36757 100.534203 
L 293.818544 104.438271 
L 287.569624 115.740393 
L 278.926116 127.391452 
L 267.34093 135.53818 
L 252.356537 139.418273 
L 233.572688 146.907233 
L 209.962891 152.183793 
L 180.287908 157.345042 
L 143.888569 160.589917 
L 101.675229 162.850809 
" style="fill:none;stroke:#008000;stroke-linecap:square;stroke-width:1.5;"/>
   </g>
   <g id="line2d_29">
    <path clip-path="url(#p013e5f3bc6)" d="M 312.254496 144.60617 
L 310.205457 133.588943 
L 307.274945 114.166827 
L 303.359342 93.205979 
L 298.265315 86.918149 
L 291.651044 92.627996 
L 283.145496 96.177863 
L 272.68679 98.046371 
L 260.425641 101.412285 
L 246.662465 107.292483 
L 231.731623 111.553983 
L 215.622893 113.701026 
L 198.322214 114.247814 
L 179.768835 119.931618 
L 159.721378 127.016165 
L 137.920963 133.178999 
L 114.401758 139.629229 
L 89.622355 146.43637 
" style="fill:none;stroke:#bf00bf;stroke-linecap:square;stroke-width:1.5;"/>
   </g>
   <g id="line2d_30">
    <path clip-path="url(#p013e5f3bc6)" d="M 310.342646 105.525772 
L 306.989342 81.816595 
L 302.864911 73.782506 
L 298.212627 61.691719 
L 292.845789 57.907135 
L 286.44974 59.549404 
L 278.752504 63.248785 
L 266.426777 76.539002 
L 244.854396 93.678057 
L 212.740407 104.947389 
L 170.066468 115.213129 
L 112.225488 133.839566 
" style="fill:none;stroke:#00bfbf;stroke-linecap:square;stroke-width:1.5;"/>
   </g>
   <g id="line2d_31">
    <path clip-path="url(#p013e5f3bc6)" d="M 276.585226 170.57267 
L 276.585226 22.318125 
" style="fill:none;stroke:#000000;stroke-dasharray:5.55,2.4;stroke-dashoffset:0;stroke-width:1.5;"/>
   </g>
   <g id="patch_3">
    <path d="M 56.46 170.57267 
L 56.46 22.318125 
" style="fill:none;stroke:#000000;stroke-linecap:square;stroke-linejoin:miter;stroke-width:0.8;"/>
   </g>
   <g id="patch_4">
    <path d="M 335.46 170.57267 
L 335.46 22.318125 
" style="fill:none;stroke:#000000;stroke-linecap:square;stroke-linejoin:miter;stroke-width:0.8;"/>
   </g>
   <g id="patch_5">
    <path d="M 56.46 170.57267 
L 335.46 170.57267 
" style="fill:none;stroke:#000000;stroke-linecap:square;stroke-linejoin:miter;stroke-width:0.8;"/>
   </g>
   <g id="patch_6">
    <path d="M 56.46 22.318125 
L 335.46 22.318125 
" style="fill:none;stroke:#000000;stroke-linecap:square;stroke-linejoin:miter;stroke-width:0.8;"/>
   </g>
   <g id="text_10">
    <!-- Five Year Climate Global Liquid Cloud Fraction vs Temperature -->
    <defs>
     <path d="M 2.984375 54.6875 
L 12.5 54.6875 
L 29.59375 8.796875 
L 46.6875 54.6875 
L 56.203125 54.6875 
L 35.6875 0 
L 23.484375 0 
z
" id="DejaVuSans-118"/>
     <path d="M -0.203125 72.90625 
L 10.40625 72.90625 
L 30.609375 42.921875 
L 50.6875 72.90625 
L 61.28125 72.90625 
L 35.5 34.71875 
L 35.5 0 
L 25.59375 0 
L 25.59375 34.71875 
z
" id="DejaVuSans-89"/>
     <path d="M 59.515625 10.40625 
L 59.515625 29.984375 
L 43.40625 29.984375 
L 43.40625 38.09375 
L 69.28125 38.09375 
L 69.28125 6.78125 
Q 63.578125 2.734375 56.6875 0.65625 
Q 49.8125 -1.421875 42 -1.421875 
Q 24.90625 -1.421875 15.25 8.5625 
Q 5.609375 18.5625 5.609375 36.375 
Q 5.609375 54.25 15.25 64.234375 
Q 24.90625 74.21875 42 74.21875 
Q 49.125 74.21875 55.546875 72.453125 
Q 61.96875 70.703125 67.390625 67.28125 
L 67.390625 56.78125 
Q 61.921875 61.421875 55.765625 63.765625 
Q 49.609375 66.109375 42.828125 66.109375 
Q 29.4375 66.109375 22.71875 58.640625 
Q 16.015625 51.171875 16.015625 36.375 
Q 16.015625 21.625 22.71875 14.15625 
Q 29.4375 6.6875 42.828125 6.6875 
Q 48.046875 6.6875 52.140625 7.59375 
Q 56.25 8.5 59.515625 10.40625 
z
" id="DejaVuSans-71"/>
     <path d="M 48.6875 27.296875 
Q 48.6875 37.203125 44.609375 42.84375 
Q 40.53125 48.484375 33.40625 48.484375 
Q 26.265625 48.484375 22.1875 42.84375 
Q 18.109375 37.203125 18.109375 27.296875 
Q 18.109375 17.390625 22.1875 11.75 
Q 26.265625 6.109375 33.40625 6.109375 
Q 40.53125 6.109375 44.609375 11.75 
Q 48.6875 17.390625 48.6875 27.296875 
z
M 18.109375 46.390625 
Q 20.953125 51.265625 25.265625 53.625 
Q 29.59375 56 35.59375 56 
Q 45.5625 56 51.78125 48.09375 
Q 58.015625 40.1875 58.015625 27.296875 
Q 58.015625 14.40625 51.78125 6.484375 
Q 45.5625 -1.421875 35.59375 -1.421875 
Q 29.59375 -1.421875 25.265625 0.953125 
Q 20.953125 3.328125 18.109375 8.203125 
L 18.109375 0 
L 9.078125 0 
L 9.078125 75.984375 
L 18.109375 75.984375 
z
" id="DejaVuSans-98"/>
     <path d="M 44.28125 53.078125 
L 44.28125 44.578125 
Q 40.484375 46.53125 36.375 47.5 
Q 32.28125 48.484375 27.875 48.484375 
Q 21.1875 48.484375 17.84375 46.4375 
Q 14.5 44.390625 14.5 40.28125 
Q 14.5 37.15625 16.890625 35.375 
Q 19.28125 33.59375 26.515625 31.984375 
L 29.59375 31.296875 
Q 39.15625 29.25 43.1875 25.515625 
Q 47.21875 21.78125 47.21875 15.09375 
Q 47.21875 7.46875 41.1875 3.015625 
Q 35.15625 -1.421875 24.609375 -1.421875 
Q 20.21875 -1.421875 15.453125 -0.5625 
Q 10.6875 0.296875 5.421875 2 
L 5.421875 11.28125 
Q 10.40625 8.6875 15.234375 7.390625 
Q 20.0625 6.109375 24.8125 6.109375 
Q 31.15625 6.109375 34.5625 8.28125 
Q 37.984375 10.453125 37.984375 14.40625 
Q 37.984375 18.0625 35.515625 20.015625 
Q 33.0625 21.96875 24.703125 23.78125 
L 21.578125 24.515625 
Q 13.234375 26.265625 9.515625 29.90625 
Q 5.8125 33.546875 5.8125 39.890625 
Q 5.8125 47.609375 11.28125 51.796875 
Q 16.75 56 26.8125 56 
Q 31.78125 56 36.171875 55.265625 
Q 40.578125 54.546875 44.28125 53.078125 
z
" id="DejaVuSans-115"/>
    </defs>
    <g transform="translate(7.2 16.318125)scale(0.12 -0.12)">
     <use xlink:href="#DejaVuSans-70"/>
     <use x="57.410156" xlink:href="#DejaVuSans-105"/>
     <use x="85.193359" xlink:href="#DejaVuSans-118"/>
     <use x="144.373047" xlink:href="#DejaVuSans-101"/>
     <use x="205.896484" xlink:href="#DejaVuSans-32"/>
     <use x="237.683594" xlink:href="#DejaVuSans-89"/>
     <use x="298.564453" xlink:href="#DejaVuSans-101"/>
     <use x="360.087891" xlink:href="#DejaVuSans-97"/>
     <use x="421.367188" xlink:href="#DejaVuSans-114"/>
     <use x="462.480469" xlink:href="#DejaVuSans-32"/>
     <use x="494.267578" xlink:href="#DejaVuSans-67"/>
     <use x="564.091797" xlink:href="#DejaVuSans-108"/>
     <use x="591.875" xlink:href="#DejaVuSans-105"/>
     <use x="619.658203" xlink:href="#DejaVuSans-109"/>
     <use x="717.070312" xlink:href="#DejaVuSans-97"/>
     <use x="778.349609" xlink:href="#DejaVuSans-116"/>
     <use x="817.558594" xlink:href="#DejaVuSans-101"/>
     <use x="879.082031" xlink:href="#DejaVuSans-32"/>
     <use x="910.869141" xlink:href="#DejaVuSans-71"/>
     <use x="988.359375" xlink:href="#DejaVuSans-108"/>
     <use x="1016.142578" xlink:href="#DejaVuSans-111"/>
     <use x="1077.324219" xlink:href="#DejaVuSans-98"/>
     <use x="1140.800781" xlink:href="#DejaVuSans-97"/>
     <use x="1202.080078" xlink:href="#DejaVuSans-108"/>
     <use x="1229.863281" xlink:href="#DejaVuSans-32"/>
     <use x="1261.650391" xlink:href="#DejaVuSans-76"/>
     <use x="1317.363281" xlink:href="#DejaVuSans-105"/>
     <use x="1345.146484" xlink:href="#DejaVuSans-113"/>
     <use x="1408.623047" xlink:href="#DejaVuSans-117"/>
     <use x="1472.001953" xlink:href="#DejaVuSans-105"/>
     <use x="1499.785156" xlink:href="#DejaVuSans-100"/>
     <use x="1563.261719" xlink:href="#DejaVuSans-32"/>
     <use x="1595.048828" xlink:href="#DejaVuSans-67"/>
     <use x="1664.873047" xlink:href="#DejaVuSans-108"/>
     <use x="1692.65625" xlink:href="#DejaVuSans-111"/>
     <use x="1753.837891" xlink:href="#DejaVuSans-117"/>
     <use x="1817.216797" xlink:href="#DejaVuSans-100"/>
     <use x="1880.693359" xlink:href="#DejaVuSans-32"/>
     <use x="1912.480469" xlink:href="#DejaVuSans-70"/>
     <use x="1969.890625" xlink:href="#DejaVuSans-114"/>
     <use x="2011.003906" xlink:href="#DejaVuSans-97"/>
     <use x="2072.283203" xlink:href="#DejaVuSans-99"/>
     <use x="2127.263672" xlink:href="#DejaVuSans-116"/>
     <use x="2166.472656" xlink:href="#DejaVuSans-105"/>
     <use x="2194.255859" xlink:href="#DejaVuSans-111"/>
     <use x="2255.4375" xlink:href="#DejaVuSans-110"/>
     <use x="2318.816406" xlink:href="#DejaVuSans-32"/>
     <use x="2350.603516" xlink:href="#DejaVuSans-118"/>
     <use x="2409.783203" xlink:href="#DejaVuSans-115"/>
     <use x="2461.882812" xlink:href="#DejaVuSans-32"/>
     <use x="2493.669922" xlink:href="#DejaVuSans-84"/>
     <use x="2554.488281" xlink:href="#DejaVuSans-101"/>
     <use x="2616.011719" xlink:href="#DejaVuSans-109"/>
     <use x="2713.423828" xlink:href="#DejaVuSans-112"/>
     <use x="2776.900391" xlink:href="#DejaVuSans-101"/>
     <use x="2838.423828" xlink:href="#DejaVuSans-114"/>
     <use x="2879.537109" xlink:href="#DejaVuSans-97"/>
     <use x="2940.816406" xlink:href="#DejaVuSans-116"/>
     <use x="2980.025391" xlink:href="#DejaVuSans-117"/>
     <use x="3043.404297" xlink:href="#DejaVuSans-114"/>
     <use x="3084.486328" xlink:href="#DejaVuSans-101"/>
    </g>
   </g>
   <g id="legend_1">
    <g id="patch_7">
     <path d="M 345.289687 133.343125 
L 548.830312 133.343125 
Q 550.830312 133.343125 550.830312 131.343125 
L 550.830312 29.318125 
Q 550.830312 27.318125 548.830312 27.318125 
L 345.289687 27.318125 
Q 343.289687 27.318125 343.289687 29.318125 
L 343.289687 131.343125 
Q 343.289687 133.343125 345.289687 133.343125 
z
" style="fill:#ffffff;opacity:0.8;stroke:#cccccc;stroke-linejoin:miter;"/>
    </g>
    <g id="line2d_32">
     <path d="M 347.289687 35.416562 
L 367.289687 35.416562 
" style="fill:none;stroke:#ff0000;stroke-dasharray:1.5,2.475;stroke-dashoffset:0;stroke-width:1.5;"/>
    </g>
    <g id="line2d_33"/>
    <g id="text_11">
     <!-- Global - CCCM -->
     <defs>
      <path d="M 4.890625 31.390625 
L 31.203125 31.390625 
L 31.203125 23.390625 
L 4.890625 23.390625 
z
" id="DejaVuSans-45"/>
      <path d="M 9.8125 72.90625 
L 24.515625 72.90625 
L 43.109375 23.296875 
L 61.8125 72.90625 
L 76.515625 72.90625 
L 76.515625 0 
L 66.890625 0 
L 66.890625 64.015625 
L 48.09375 14.015625 
L 38.1875 14.015625 
L 19.390625 64.015625 
L 19.390625 0 
L 9.8125 0 
z
" id="DejaVuSans-77"/>
     </defs>
     <g transform="translate(375.289687 38.916562)scale(0.1 -0.1)">
      <use xlink:href="#DejaVuSans-71"/>
      <use x="77.490234" xlink:href="#DejaVuSans-108"/>
      <use x="105.273438" xlink:href="#DejaVuSans-111"/>
      <use x="166.455078" xlink:href="#DejaVuSans-98"/>
      <use x="229.931641" xlink:href="#DejaVuSans-97"/>
      <use x="291.210938" xlink:href="#DejaVuSans-108"/>
      <use x="318.994141" xlink:href="#DejaVuSans-32"/>
      <use x="350.78125" xlink:href="#DejaVuSans-45"/>
      <use x="386.865234" xlink:href="#DejaVuSans-32"/>
      <use x="418.652344" xlink:href="#DejaVuSans-67"/>
      <use x="488.476562" xlink:href="#DejaVuSans-67"/>
      <use x="558.300781" xlink:href="#DejaVuSans-67"/>
      <use x="628.125" xlink:href="#DejaVuSans-77"/>
     </g>
    </g>
    <g id="line2d_34">
     <path d="M 347.289687 50.094687 
L 367.289687 50.094687 
" style="fill:none;stroke:#0000ff;stroke-dasharray:1.5,2.475;stroke-dashoffset:0;stroke-width:1.5;"/>
    </g>
    <g id="line2d_35"/>
    <g id="text_12">
     <!-- Global - CALIPSO -->
     <defs>
      <path d="M 34.1875 63.1875 
L 20.796875 26.90625 
L 47.609375 26.90625 
z
M 28.609375 72.90625 
L 39.796875 72.90625 
L 67.578125 0 
L 57.328125 0 
L 50.6875 18.703125 
L 17.828125 18.703125 
L 11.1875 0 
L 0.78125 0 
z
" id="DejaVuSans-65"/>
      <path d="M 9.8125 72.90625 
L 19.671875 72.90625 
L 19.671875 0 
L 9.8125 0 
z
" id="DejaVuSans-73"/>
      <path d="M 19.671875 64.796875 
L 19.671875 37.40625 
L 32.078125 37.40625 
Q 38.96875 37.40625 42.71875 40.96875 
Q 46.484375 44.53125 46.484375 51.125 
Q 46.484375 57.671875 42.71875 61.234375 
Q 38.96875 64.796875 32.078125 64.796875 
z
M 9.8125 72.90625 
L 32.078125 72.90625 
Q 44.34375 72.90625 50.609375 67.359375 
Q 56.890625 61.8125 56.890625 51.125 
Q 56.890625 40.328125 50.609375 34.8125 
Q 44.34375 29.296875 32.078125 29.296875 
L 19.671875 29.296875 
L 19.671875 0 
L 9.8125 0 
z
" id="DejaVuSans-80"/>
      <path d="M 53.515625 70.515625 
L 53.515625 60.890625 
Q 47.90625 63.578125 42.921875 64.890625 
Q 37.9375 66.21875 33.296875 66.21875 
Q 25.25 66.21875 20.875 63.09375 
Q 16.5 59.96875 16.5 54.203125 
Q 16.5 49.359375 19.40625 46.890625 
Q 22.3125 44.4375 30.421875 42.921875 
L 36.375 41.703125 
Q 47.40625 39.59375 52.65625 34.296875 
Q 57.90625 29 57.90625 20.125 
Q 57.90625 9.515625 50.796875 4.046875 
Q 43.703125 -1.421875 29.984375 -1.421875 
Q 24.8125 -1.421875 18.96875 -0.25 
Q 13.140625 0.921875 6.890625 3.21875 
L 6.890625 13.375 
Q 12.890625 10.015625 18.65625 8.296875 
Q 24.421875 6.59375 29.984375 6.59375 
Q 38.421875 6.59375 43.015625 9.90625 
Q 47.609375 13.234375 47.609375 19.390625 
Q 47.609375 24.75 44.3125 27.78125 
Q 41.015625 30.8125 33.5 32.328125 
L 27.484375 33.5 
Q 16.453125 35.6875 11.515625 40.375 
Q 6.59375 45.0625 6.59375 53.421875 
Q 6.59375 63.09375 13.40625 68.65625 
Q 20.21875 74.21875 32.171875 74.21875 
Q 37.3125 74.21875 42.625 73.28125 
Q 47.953125 72.359375 53.515625 70.515625 
z
" id="DejaVuSans-83"/>
      <path d="M 39.40625 66.21875 
Q 28.65625 66.21875 22.328125 58.203125 
Q 16.015625 50.203125 16.015625 36.375 
Q 16.015625 22.609375 22.328125 14.59375 
Q 28.65625 6.59375 39.40625 6.59375 
Q 50.140625 6.59375 56.421875 14.59375 
Q 62.703125 22.609375 62.703125 36.375 
Q 62.703125 50.203125 56.421875 58.203125 
Q 50.140625 66.21875 39.40625 66.21875 
z
M 39.40625 74.21875 
Q 54.734375 74.21875 63.90625 63.9375 
Q 73.09375 53.65625 73.09375 36.375 
Q 73.09375 19.140625 63.90625 8.859375 
Q 54.734375 -1.421875 39.40625 -1.421875 
Q 24.03125 -1.421875 14.8125 8.828125 
Q 5.609375 19.09375 5.609375 36.375 
Q 5.609375 53.65625 14.8125 63.9375 
Q 24.03125 74.21875 39.40625 74.21875 
z
" id="DejaVuSans-79"/>
     </defs>
     <g transform="translate(375.289687 53.594687)scale(0.1 -0.1)">
      <use xlink:href="#DejaVuSans-71"/>
      <use x="77.490234" xlink:href="#DejaVuSans-108"/>
      <use x="105.273438" xlink:href="#DejaVuSans-111"/>
      <use x="166.455078" xlink:href="#DejaVuSans-98"/>
      <use x="229.931641" xlink:href="#DejaVuSans-97"/>
      <use x="291.210938" xlink:href="#DejaVuSans-108"/>
      <use x="318.994141" xlink:href="#DejaVuSans-32"/>
      <use x="350.78125" xlink:href="#DejaVuSans-45"/>
      <use x="386.865234" xlink:href="#DejaVuSans-32"/>
      <use x="418.652344" xlink:href="#DejaVuSans-67"/>
      <use x="488.476562" xlink:href="#DejaVuSans-65"/>
      <use x="556.884766" xlink:href="#DejaVuSans-76"/>
      <use x="612.597656" xlink:href="#DejaVuSans-73"/>
      <use x="642.089844" xlink:href="#DejaVuSans-80"/>
      <use x="702.392578" xlink:href="#DejaVuSans-83"/>
      <use x="765.869141" xlink:href="#DejaVuSans-79"/>
     </g>
    </g>
    <g id="line2d_36">
     <path d="M 347.289687 64.772812 
L 367.289687 64.772812 
" style="fill:none;stroke:#000000;stroke-linecap:square;stroke-width:1.5;"/>
    </g>
    <g id="line2d_37"/>
    <g id="text_13">
     <!-- Global - ECMWF-ERA5 -->
     <defs>
      <path d="M 9.8125 72.90625 
L 55.90625 72.90625 
L 55.90625 64.59375 
L 19.671875 64.59375 
L 19.671875 43.015625 
L 54.390625 43.015625 
L 54.390625 34.71875 
L 19.671875 34.71875 
L 19.671875 8.296875 
L 56.78125 8.296875 
L 56.78125 0 
L 9.8125 0 
z
" id="DejaVuSans-69"/>
      <path d="M 3.328125 72.90625 
L 13.28125 72.90625 
L 28.609375 11.28125 
L 43.890625 72.90625 
L 54.984375 72.90625 
L 70.3125 11.28125 
L 85.59375 72.90625 
L 95.609375 72.90625 
L 77.296875 0 
L 64.890625 0 
L 49.515625 63.28125 
L 33.984375 0 
L 21.578125 0 
z
" id="DejaVuSans-87"/>
      <path d="M 44.390625 34.1875 
Q 47.5625 33.109375 50.5625 29.59375 
Q 53.5625 26.078125 56.59375 19.921875 
L 66.609375 0 
L 56 0 
L 46.6875 18.703125 
Q 43.0625 26.03125 39.671875 28.421875 
Q 36.28125 30.8125 30.421875 30.8125 
L 19.671875 30.8125 
L 19.671875 0 
L 9.8125 0 
L 9.8125 72.90625 
L 32.078125 72.90625 
Q 44.578125 72.90625 50.734375 67.671875 
Q 56.890625 62.453125 56.890625 51.90625 
Q 56.890625 45.015625 53.6875 40.46875 
Q 50.484375 35.9375 44.390625 34.1875 
z
M 19.671875 64.796875 
L 19.671875 38.921875 
L 32.078125 38.921875 
Q 39.203125 38.921875 42.84375 42.21875 
Q 46.484375 45.515625 46.484375 51.90625 
Q 46.484375 58.296875 42.84375 61.546875 
Q 39.203125 64.796875 32.078125 64.796875 
z
" id="DejaVuSans-82"/>
     </defs>
     <g transform="translate(375.289687 68.272812)scale(0.1 -0.1)">
      <use xlink:href="#DejaVuSans-71"/>
      <use x="77.490234" xlink:href="#DejaVuSans-108"/>
      <use x="105.273438" xlink:href="#DejaVuSans-111"/>
      <use x="166.455078" xlink:href="#DejaVuSans-98"/>
      <use x="229.931641" xlink:href="#DejaVuSans-97"/>
      <use x="291.210938" xlink:href="#DejaVuSans-108"/>
      <use x="318.994141" xlink:href="#DejaVuSans-32"/>
      <use x="350.78125" xlink:href="#DejaVuSans-45"/>
      <use x="386.865234" xlink:href="#DejaVuSans-32"/>
      <use x="418.652344" xlink:href="#DejaVuSans-69"/>
      <use x="481.835938" xlink:href="#DejaVuSans-67"/>
      <use x="551.660156" xlink:href="#DejaVuSans-77"/>
      <use x="637.939453" xlink:href="#DejaVuSans-87"/>
      <use x="736.816406" xlink:href="#DejaVuSans-70"/>
      <use x="794.335938" xlink:href="#DejaVuSans-45"/>
      <use x="830.419922" xlink:href="#DejaVuSans-69"/>
      <use x="893.603516" xlink:href="#DejaVuSans-82"/>
      <use x="963.023438" xlink:href="#DejaVuSans-65"/>
      <use x="1031.431641" xlink:href="#DejaVuSans-53"/>
     </g>
    </g>
    <g id="line2d_38">
     <path d="M 347.289687 79.450937 
L 367.289687 79.450937 
" style="fill:none;stroke:#008000;stroke-linecap:square;stroke-width:1.5;"/>
    </g>
    <g id="line2d_39"/>
    <g id="text_14">
     <!-- Global - CMIP5-GFDL-HIRAM-AMIP -->
     <defs>
      <path d="M 19.671875 64.796875 
L 19.671875 8.109375 
L 31.59375 8.109375 
Q 46.6875 8.109375 53.6875 14.9375 
Q 60.6875 21.78125 60.6875 36.53125 
Q 60.6875 51.171875 53.6875 57.984375 
Q 46.6875 64.796875 31.59375 64.796875 
z
M 9.8125 72.90625 
L 30.078125 72.90625 
Q 51.265625 72.90625 61.171875 64.09375 
Q 71.09375 55.28125 71.09375 36.53125 
Q 71.09375 17.671875 61.125 8.828125 
Q 51.171875 0 30.078125 0 
L 9.8125 0 
z
" id="DejaVuSans-68"/>
      <path d="M 9.8125 72.90625 
L 19.671875 72.90625 
L 19.671875 43.015625 
L 55.515625 43.015625 
L 55.515625 72.90625 
L 65.375 72.90625 
L 65.375 0 
L 55.515625 0 
L 55.515625 34.71875 
L 19.671875 34.71875 
L 19.671875 0 
L 9.8125 0 
z
" id="DejaVuSans-72"/>
     </defs>
     <g transform="translate(375.289687 82.950937)scale(0.1 -0.1)">
      <use xlink:href="#DejaVuSans-71"/>
      <use x="77.490234" xlink:href="#DejaVuSans-108"/>
      <use x="105.273438" xlink:href="#DejaVuSans-111"/>
      <use x="166.455078" xlink:href="#DejaVuSans-98"/>
      <use x="229.931641" xlink:href="#DejaVuSans-97"/>
      <use x="291.210938" xlink:href="#DejaVuSans-108"/>
      <use x="318.994141" xlink:href="#DejaVuSans-32"/>
      <use x="350.78125" xlink:href="#DejaVuSans-45"/>
      <use x="386.865234" xlink:href="#DejaVuSans-32"/>
      <use x="418.652344" xlink:href="#DejaVuSans-67"/>
      <use x="488.476562" xlink:href="#DejaVuSans-77"/>
      <use x="574.755859" xlink:href="#DejaVuSans-73"/>
      <use x="604.248047" xlink:href="#DejaVuSans-80"/>
      <use x="664.550781" xlink:href="#DejaVuSans-53"/>
      <use x="728.173828" xlink:href="#DejaVuSans-45"/>
      <use x="764.304688" xlink:href="#DejaVuSans-71"/>
      <use x="841.794922" xlink:href="#DejaVuSans-70"/>
      <use x="899.314453" xlink:href="#DejaVuSans-68"/>
      <use x="976.316406" xlink:href="#DejaVuSans-76"/>
      <use x="1032.013672" xlink:href="#DejaVuSans-45"/>
      <use x="1068.097656" xlink:href="#DejaVuSans-72"/>
      <use x="1143.292969" xlink:href="#DejaVuSans-73"/>
      <use x="1172.785156" xlink:href="#DejaVuSans-82"/>
      <use x="1242.205078" xlink:href="#DejaVuSans-65"/>
      <use x="1310.613281" xlink:href="#DejaVuSans-77"/>
      <use x="1396.892578" xlink:href="#DejaVuSans-45"/>
      <use x="1432.945312" xlink:href="#DejaVuSans-65"/>
      <use x="1501.353516" xlink:href="#DejaVuSans-77"/>
      <use x="1587.632812" xlink:href="#DejaVuSans-73"/>
      <use x="1617.125" xlink:href="#DejaVuSans-80"/>
     </g>
    </g>
    <g id="line2d_40">
     <path d="M 347.289687 94.129062 
L 367.289687 94.129062 
" style="fill:none;stroke:#bf00bf;stroke-linecap:square;stroke-width:1.5;"/>
    </g>
    <g id="line2d_41"/>
    <g id="text_15">
     <!-- Global - CMIP5-MRI_CGCM3-AMIP -->
     <defs>
      <path d="M 50.984375 -16.609375 
L 50.984375 -23.578125 
L -0.984375 -23.578125 
L -0.984375 -16.609375 
z
" id="DejaVuSans-95"/>
     </defs>
     <g transform="translate(375.289687 97.629062)scale(0.1 -0.1)">
      <use xlink:href="#DejaVuSans-71"/>
      <use x="77.490234" xlink:href="#DejaVuSans-108"/>
      <use x="105.273438" xlink:href="#DejaVuSans-111"/>
      <use x="166.455078" xlink:href="#DejaVuSans-98"/>
      <use x="229.931641" xlink:href="#DejaVuSans-97"/>
      <use x="291.210938" xlink:href="#DejaVuSans-108"/>
      <use x="318.994141" xlink:href="#DejaVuSans-32"/>
      <use x="350.78125" xlink:href="#DejaVuSans-45"/>
      <use x="386.865234" xlink:href="#DejaVuSans-32"/>
      <use x="418.652344" xlink:href="#DejaVuSans-67"/>
      <use x="488.476562" xlink:href="#DejaVuSans-77"/>
      <use x="574.755859" xlink:href="#DejaVuSans-73"/>
      <use x="604.248047" xlink:href="#DejaVuSans-80"/>
      <use x="664.550781" xlink:href="#DejaVuSans-53"/>
      <use x="728.173828" xlink:href="#DejaVuSans-45"/>
      <use x="764.257812" xlink:href="#DejaVuSans-77"/>
      <use x="850.537109" xlink:href="#DejaVuSans-82"/>
      <use x="920.019531" xlink:href="#DejaVuSans-73"/>
      <use x="949.511719" xlink:href="#DejaVuSans-95"/>
      <use x="999.511719" xlink:href="#DejaVuSans-67"/>
      <use x="1069.335938" xlink:href="#DejaVuSans-71"/>
      <use x="1146.826172" xlink:href="#DejaVuSans-67"/>
      <use x="1216.650391" xlink:href="#DejaVuSans-77"/>
      <use x="1302.929688" xlink:href="#DejaVuSans-51"/>
      <use x="1366.552734" xlink:href="#DejaVuSans-45"/>
      <use x="1402.605469" xlink:href="#DejaVuSans-65"/>
      <use x="1471.013672" xlink:href="#DejaVuSans-77"/>
      <use x="1557.292969" xlink:href="#DejaVuSans-73"/>
      <use x="1586.785156" xlink:href="#DejaVuSans-80"/>
     </g>
    </g>
    <g id="line2d_42">
     <path d="M 347.289687 109.085312 
L 367.289687 109.085312 
" style="fill:none;stroke:#00bfbf;stroke-linecap:square;stroke-width:1.5;"/>
    </g>
    <g id="line2d_43"/>
    <g id="text_16">
     <!-- Global - CMIP5-CESM1-CAM5-AMIP -->
     <g transform="translate(375.289687 112.585312)scale(0.1 -0.1)">
      <use xlink:href="#DejaVuSans-71"/>
      <use x="77.490234" xlink:href="#DejaVuSans-108"/>
      <use x="105.273438" xlink:href="#DejaVuSans-111"/>
      <use x="166.455078" xlink:href="#DejaVuSans-98"/>
      <use x="229.931641" xlink:href="#DejaVuSans-97"/>
      <use x="291.210938" xlink:href="#DejaVuSans-108"/>
      <use x="318.994141" xlink:href="#DejaVuSans-32"/>
      <use x="350.78125" xlink:href="#DejaVuSans-45"/>
      <use x="386.865234" xlink:href="#DejaVuSans-32"/>
      <use x="418.652344" xlink:href="#DejaVuSans-67"/>
      <use x="488.476562" xlink:href="#DejaVuSans-77"/>
      <use x="574.755859" xlink:href="#DejaVuSans-73"/>
      <use x="604.248047" xlink:href="#DejaVuSans-80"/>
      <use x="664.550781" xlink:href="#DejaVuSans-53"/>
      <use x="728.173828" xlink:href="#DejaVuSans-45"/>
      <use x="764.257812" xlink:href="#DejaVuSans-67"/>
      <use x="834.082031" xlink:href="#DejaVuSans-69"/>
      <use x="897.265625" xlink:href="#DejaVuSans-83"/>
      <use x="960.742188" xlink:href="#DejaVuSans-77"/>
      <use x="1047.021484" xlink:href="#DejaVuSans-49"/>
      <use x="1110.644531" xlink:href="#DejaVuSans-45"/>
      <use x="1146.728516" xlink:href="#DejaVuSans-67"/>
      <use x="1216.552734" xlink:href="#DejaVuSans-65"/>
      <use x="1284.960938" xlink:href="#DejaVuSans-77"/>
      <use x="1371.240234" xlink:href="#DejaVuSans-53"/>
      <use x="1434.863281" xlink:href="#DejaVuSans-45"/>
      <use x="1470.916016" xlink:href="#DejaVuSans-65"/>
      <use x="1539.324219" xlink:href="#DejaVuSans-77"/>
      <use x="1625.603516" xlink:href="#DejaVuSans-73"/>
      <use x="1655.095703" xlink:href="#DejaVuSans-80"/>
     </g>
    </g>
    <g id="line2d_44">
     <path d="M 347.289687 123.763437 
L 367.289687 123.763437 
" style="fill:none;stroke:#000000;stroke-dasharray:5.55,2.4;stroke-dashoffset:0;stroke-width:1.5;"/>
    </g>
    <g id="line2d_45"/>
    <g id="text_17">
     <!-- 273K -->
     <defs>
      <path d="M 8.203125 72.90625 
L 55.078125 72.90625 
L 55.078125 68.703125 
L 28.609375 0 
L 18.3125 0 
L 43.21875 64.59375 
L 8.203125 64.59375 
z
" id="DejaVuSans-55"/>
     </defs>
     <g transform="translate(375.289687 127.263437)scale(0.1 -0.1)">
      <use xlink:href="#DejaVuSans-50"/>
      <use x="63.623047" xlink:href="#DejaVuSans-55"/>
      <use x="127.246094" xlink:href="#DejaVuSans-51"/>
      <use x="190.869141" xlink:href="#DejaVuSans-75"/>
     </g>
    </g>
   </g>
  </g>
  <g id="axes_2">
   <g id="patch_8">
    <path d="M 56.46 348.478125 
L 335.46 348.478125 
L 335.46 200.22358 
L 56.46 200.22358 
z
" style="fill:#ffffff;"/>
   </g>
   <g id="matplotlib.axis_3">
    <g id="xtick_6">
     <g id="line2d_46">
      <path clip-path="url(#p3b13168259)" d="M 98.793662 348.478125 
L 98.793662 200.22358 
" style="fill:none;stroke:#b0b0b0;stroke-linecap:square;stroke-width:0.8;"/>
     </g>
     <g id="line2d_47">
      <g>
       <use style="stroke:#000000;stroke-width:0.8;" x="98.793662" xlink:href="#mf008adb101" y="348.478125"/>
      </g>
     </g>
     <g id="text_18">
      <!-- 240 -->
      <defs>
       <path d="M 37.796875 64.3125 
L 12.890625 25.390625 
L 37.796875 25.390625 
z
M 35.203125 72.90625 
L 47.609375 72.90625 
L 47.609375 25.390625 
L 58.015625 25.390625 
L 58.015625 17.1875 
L 47.609375 17.1875 
L 47.609375 0 
L 37.796875 0 
L 37.796875 17.1875 
L 4.890625 17.1875 
L 4.890625 26.703125 
z
" id="DejaVuSans-52"/>
      </defs>
      <g transform="translate(89.249912 363.076562)scale(0.1 -0.1)">
       <use xlink:href="#DejaVuSans-50"/>
       <use x="63.623047" xlink:href="#DejaVuSans-52"/>
       <use x="127.246094" xlink:href="#DejaVuSans-48"/>
      </g>
     </g>
    </g>
    <g id="xtick_7">
     <g id="line2d_48">
      <path clip-path="url(#p3b13168259)" d="M 152.669894 348.478125 
L 152.669894 200.22358 
" style="fill:none;stroke:#b0b0b0;stroke-linecap:square;stroke-width:0.8;"/>
     </g>
     <g id="line2d_49">
      <g>
       <use style="stroke:#000000;stroke-width:0.8;" x="152.669894" xlink:href="#mf008adb101" y="348.478125"/>
      </g>
     </g>
     <g id="text_19">
      <!-- 250 -->
      <g transform="translate(143.126144 363.076562)scale(0.1 -0.1)">
       <use xlink:href="#DejaVuSans-50"/>
       <use x="63.623047" xlink:href="#DejaVuSans-53"/>
       <use x="127.246094" xlink:href="#DejaVuSans-48"/>
      </g>
     </g>
    </g>
    <g id="xtick_8">
     <g id="line2d_50">
      <path clip-path="url(#p3b13168259)" d="M 206.546125 348.478125 
L 206.546125 200.22358 
" style="fill:none;stroke:#b0b0b0;stroke-linecap:square;stroke-width:0.8;"/>
     </g>
     <g id="line2d_51">
      <g>
       <use style="stroke:#000000;stroke-width:0.8;" x="206.546125" xlink:href="#mf008adb101" y="348.478125"/>
      </g>
     </g>
     <g id="text_20">
      <!-- 260 -->
      <defs>
       <path d="M 33.015625 40.375 
Q 26.375 40.375 22.484375 35.828125 
Q 18.609375 31.296875 18.609375 23.390625 
Q 18.609375 15.53125 22.484375 10.953125 
Q 26.375 6.390625 33.015625 6.390625 
Q 39.65625 6.390625 43.53125 10.953125 
Q 47.40625 15.53125 47.40625 23.390625 
Q 47.40625 31.296875 43.53125 35.828125 
Q 39.65625 40.375 33.015625 40.375 
z
M 52.59375 71.296875 
L 52.59375 62.3125 
Q 48.875 64.0625 45.09375 64.984375 
Q 41.3125 65.921875 37.59375 65.921875 
Q 27.828125 65.921875 22.671875 59.328125 
Q 17.53125 52.734375 16.796875 39.40625 
Q 19.671875 43.65625 24.015625 45.921875 
Q 28.375 48.1875 33.59375 48.1875 
Q 44.578125 48.1875 50.953125 41.515625 
Q 57.328125 34.859375 57.328125 23.390625 
Q 57.328125 12.15625 50.6875 5.359375 
Q 44.046875 -1.421875 33.015625 -1.421875 
Q 20.359375 -1.421875 13.671875 8.265625 
Q 6.984375 17.96875 6.984375 36.375 
Q 6.984375 53.65625 15.1875 63.9375 
Q 23.390625 74.21875 37.203125 74.21875 
Q 40.921875 74.21875 44.703125 73.484375 
Q 48.484375 72.75 52.59375 71.296875 
z
" id="DejaVuSans-54"/>
      </defs>
      <g transform="translate(197.002375 363.076562)scale(0.1 -0.1)">
       <use xlink:href="#DejaVuSans-50"/>
       <use x="63.623047" xlink:href="#DejaVuSans-54"/>
       <use x="127.246094" xlink:href="#DejaVuSans-48"/>
      </g>
     </g>
    </g>
    <g id="xtick_9">
     <g id="line2d_52">
      <path clip-path="url(#p3b13168259)" d="M 260.422357 348.478125 
L 260.422357 200.22358 
" style="fill:none;stroke:#b0b0b0;stroke-linecap:square;stroke-width:0.8;"/>
     </g>
     <g id="line2d_53">
      <g>
       <use style="stroke:#000000;stroke-width:0.8;" x="260.422357" xlink:href="#mf008adb101" y="348.478125"/>
      </g>
     </g>
     <g id="text_21">
      <!-- 270 -->
      <g transform="translate(250.878607 363.076562)scale(0.1 -0.1)">
       <use xlink:href="#DejaVuSans-50"/>
       <use x="63.623047" xlink:href="#DejaVuSans-55"/>
       <use x="127.246094" xlink:href="#DejaVuSans-48"/>
      </g>
     </g>
    </g>
    <g id="xtick_10">
     <g id="line2d_54">
      <path clip-path="url(#p3b13168259)" d="M 314.298588 348.478125 
L 314.298588 200.22358 
" style="fill:none;stroke:#b0b0b0;stroke-linecap:square;stroke-width:0.8;"/>
     </g>
     <g id="line2d_55">
      <g>
       <use style="stroke:#000000;stroke-width:0.8;" x="314.298588" xlink:href="#mf008adb101" y="348.478125"/>
      </g>
     </g>
     <g id="text_22">
      <!-- 280 -->
      <defs>
       <path d="M 31.78125 34.625 
Q 24.75 34.625 20.71875 30.859375 
Q 16.703125 27.09375 16.703125 20.515625 
Q 16.703125 13.921875 20.71875 10.15625 
Q 24.75 6.390625 31.78125 6.390625 
Q 38.8125 6.390625 42.859375 10.171875 
Q 46.921875 13.96875 46.921875 20.515625 
Q 46.921875 27.09375 42.890625 30.859375 
Q 38.875 34.625 31.78125 34.625 
z
M 21.921875 38.8125 
Q 15.578125 40.375 12.03125 44.71875 
Q 8.5 49.078125 8.5 55.328125 
Q 8.5 64.0625 14.71875 69.140625 
Q 20.953125 74.21875 31.78125 74.21875 
Q 42.671875 74.21875 48.875 69.140625 
Q 55.078125 64.0625 55.078125 55.328125 
Q 55.078125 49.078125 51.53125 44.71875 
Q 48 40.375 41.703125 38.8125 
Q 48.828125 37.15625 52.796875 32.3125 
Q 56.78125 27.484375 56.78125 20.515625 
Q 56.78125 9.90625 50.3125 4.234375 
Q 43.84375 -1.421875 31.78125 -1.421875 
Q 19.734375 -1.421875 13.25 4.234375 
Q 6.78125 9.90625 6.78125 20.515625 
Q 6.78125 27.484375 10.78125 32.3125 
Q 14.796875 37.15625 21.921875 38.8125 
z
M 18.3125 54.390625 
Q 18.3125 48.734375 21.84375 45.5625 
Q 25.390625 42.390625 31.78125 42.390625 
Q 38.140625 42.390625 41.71875 45.5625 
Q 45.3125 48.734375 45.3125 54.390625 
Q 45.3125 60.0625 41.71875 63.234375 
Q 38.140625 66.40625 31.78125 66.40625 
Q 25.390625 66.40625 21.84375 63.234375 
Q 18.3125 60.0625 18.3125 54.390625 
z
" id="DejaVuSans-56"/>
      </defs>
      <g transform="translate(304.754838 363.076562)scale(0.1 -0.1)">
       <use xlink:href="#DejaVuSans-50"/>
       <use x="63.623047" xlink:href="#DejaVuSans-56"/>
       <use x="127.246094" xlink:href="#DejaVuSans-48"/>
      </g>
     </g>
    </g>
    <g id="text_23">
     <!-- Temperature (K) -->
     <g transform="translate(154.573281 376.754687)scale(0.1 -0.1)">
      <use xlink:href="#DejaVuSans-84"/>
      <use x="60.818359" xlink:href="#DejaVuSans-101"/>
      <use x="122.341797" xlink:href="#DejaVuSans-109"/>
      <use x="219.753906" xlink:href="#DejaVuSans-112"/>
      <use x="283.230469" xlink:href="#DejaVuSans-101"/>
      <use x="344.753906" xlink:href="#DejaVuSans-114"/>
      <use x="385.867188" xlink:href="#DejaVuSans-97"/>
      <use x="447.146484" xlink:href="#DejaVuSans-116"/>
      <use x="486.355469" xlink:href="#DejaVuSans-117"/>
      <use x="549.734375" xlink:href="#DejaVuSans-114"/>
      <use x="590.816406" xlink:href="#DejaVuSans-101"/>
      <use x="652.339844" xlink:href="#DejaVuSans-32"/>
      <use x="684.126953" xlink:href="#DejaVuSans-40"/>
      <use x="723.140625" xlink:href="#DejaVuSans-75"/>
      <use x="788.716797" xlink:href="#DejaVuSans-41"/>
     </g>
    </g>
   </g>
   <g id="matplotlib.axis_4">
    <g id="ytick_8">
     <g id="line2d_56">
      <path clip-path="url(#p3b13168259)" d="M 56.46 343.019019 
L 335.46 343.019019 
" style="fill:none;stroke:#b0b0b0;stroke-linecap:square;stroke-width:0.8;"/>
     </g>
     <g id="line2d_57">
      <g>
       <use style="stroke:#000000;stroke-width:0.8;" x="56.46" xlink:href="#m667c690ba9" y="343.019019"/>
      </g>
     </g>
     <g id="text_24">
      <!-- 0.00 -->
      <g transform="translate(27.194375 346.818238)scale(0.1 -0.1)">
       <use xlink:href="#DejaVuSans-48"/>
       <use x="63.623047" xlink:href="#DejaVuSans-46"/>
       <use x="95.410156" xlink:href="#DejaVuSans-48"/>
       <use x="159.033203" xlink:href="#DejaVuSans-48"/>
      </g>
     </g>
    </g>
    <g id="ytick_9">
     <g id="line2d_58">
      <path clip-path="url(#p3b13168259)" d="M 56.46 321.022861 
L 335.46 321.022861 
" style="fill:none;stroke:#b0b0b0;stroke-linecap:square;stroke-width:0.8;"/>
     </g>
     <g id="line2d_59">
      <g>
       <use style="stroke:#000000;stroke-width:0.8;" x="56.46" xlink:href="#m667c690ba9" y="321.022861"/>
      </g>
     </g>
     <g id="text_25">
      <!-- 0.05 -->
      <g transform="translate(27.194375 324.82208)scale(0.1 -0.1)">
       <use xlink:href="#DejaVuSans-48"/>
       <use x="63.623047" xlink:href="#DejaVuSans-46"/>
       <use x="95.410156" xlink:href="#DejaVuSans-48"/>
       <use x="159.033203" xlink:href="#DejaVuSans-53"/>
      </g>
     </g>
    </g>
    <g id="ytick_10">
     <g id="line2d_60">
      <path clip-path="url(#p3b13168259)" d="M 56.46 299.026702 
L 335.46 299.026702 
" style="fill:none;stroke:#b0b0b0;stroke-linecap:square;stroke-width:0.8;"/>
     </g>
     <g id="line2d_61">
      <g>
       <use style="stroke:#000000;stroke-width:0.8;" x="56.46" xlink:href="#m667c690ba9" y="299.026702"/>
      </g>
     </g>
     <g id="text_26">
      <!-- 0.10 -->
      <g transform="translate(27.194375 302.825921)scale(0.1 -0.1)">
       <use xlink:href="#DejaVuSans-48"/>
       <use x="63.623047" xlink:href="#DejaVuSans-46"/>
       <use x="95.410156" xlink:href="#DejaVuSans-49"/>
       <use x="159.033203" xlink:href="#DejaVuSans-48"/>
      </g>
     </g>
    </g>
    <g id="ytick_11">
     <g id="line2d_62">
      <path clip-path="url(#p3b13168259)" d="M 56.46 277.030544 
L 335.46 277.030544 
" style="fill:none;stroke:#b0b0b0;stroke-linecap:square;stroke-width:0.8;"/>
     </g>
     <g id="line2d_63">
      <g>
       <use style="stroke:#000000;stroke-width:0.8;" x="56.46" xlink:href="#m667c690ba9" y="277.030544"/>
      </g>
     </g>
     <g id="text_27">
      <!-- 0.15 -->
      <g transform="translate(27.194375 280.829762)scale(0.1 -0.1)">
       <use xlink:href="#DejaVuSans-48"/>
       <use x="63.623047" xlink:href="#DejaVuSans-46"/>
       <use x="95.410156" xlink:href="#DejaVuSans-49"/>
       <use x="159.033203" xlink:href="#DejaVuSans-53"/>
      </g>
     </g>
    </g>
    <g id="ytick_12">
     <g id="line2d_64">
      <path clip-path="url(#p3b13168259)" d="M 56.46 255.034385 
L 335.46 255.034385 
" style="fill:none;stroke:#b0b0b0;stroke-linecap:square;stroke-width:0.8;"/>
     </g>
     <g id="line2d_65">
      <g>
       <use style="stroke:#000000;stroke-width:0.8;" x="56.46" xlink:href="#m667c690ba9" y="255.034385"/>
      </g>
     </g>
     <g id="text_28">
      <!-- 0.20 -->
      <g transform="translate(27.194375 258.833604)scale(0.1 -0.1)">
       <use xlink:href="#DejaVuSans-48"/>
       <use x="63.623047" xlink:href="#DejaVuSans-46"/>
       <use x="95.410156" xlink:href="#DejaVuSans-50"/>
       <use x="159.033203" xlink:href="#DejaVuSans-48"/>
      </g>
     </g>
    </g>
    <g id="ytick_13">
     <g id="line2d_66">
      <path clip-path="url(#p3b13168259)" d="M 56.46 233.038227 
L 335.46 233.038227 
" style="fill:none;stroke:#b0b0b0;stroke-linecap:square;stroke-width:0.8;"/>
     </g>
     <g id="line2d_67">
      <g>
       <use style="stroke:#000000;stroke-width:0.8;" x="56.46" xlink:href="#m667c690ba9" y="233.038227"/>
      </g>
     </g>
     <g id="text_29">
      <!-- 0.25 -->
      <g transform="translate(27.194375 236.837445)scale(0.1 -0.1)">
       <use xlink:href="#DejaVuSans-48"/>
       <use x="63.623047" xlink:href="#DejaVuSans-46"/>
       <use x="95.410156" xlink:href="#DejaVuSans-50"/>
       <use x="159.033203" xlink:href="#DejaVuSans-53"/>
      </g>
     </g>
    </g>
    <g id="ytick_14">
     <g id="line2d_68">
      <path clip-path="url(#p3b13168259)" d="M 56.46 211.042068 
L 335.46 211.042068 
" style="fill:none;stroke:#b0b0b0;stroke-linecap:square;stroke-width:0.8;"/>
     </g>
     <g id="line2d_69">
      <g>
       <use style="stroke:#000000;stroke-width:0.8;" x="56.46" xlink:href="#m667c690ba9" y="211.042068"/>
      </g>
     </g>
     <g id="text_30">
      <!-- 0.30 -->
      <g transform="translate(27.194375 214.841287)scale(0.1 -0.1)">
       <use xlink:href="#DejaVuSans-48"/>
       <use x="63.623047" xlink:href="#DejaVuSans-46"/>
       <use x="95.410156" xlink:href="#DejaVuSans-51"/>
       <use x="159.033203" xlink:href="#DejaVuSans-48"/>
      </g>
     </g>
    </g>
    <g id="text_31">
     <!-- Liquid Cloud Fraction -->
     <g transform="translate(21.114687 327.209446)rotate(-90)scale(0.1 -0.1)">
      <use xlink:href="#DejaVuSans-76"/>
      <use x="55.712891" xlink:href="#DejaVuSans-105"/>
      <use x="83.496094" xlink:href="#DejaVuSans-113"/>
      <use x="146.972656" xlink:href="#DejaVuSans-117"/>
      <use x="210.351562" xlink:href="#DejaVuSans-105"/>
      <use x="238.134766" xlink:href="#DejaVuSans-100"/>
      <use x="301.611328" xlink:href="#DejaVuSans-32"/>
      <use x="333.398438" xlink:href="#DejaVuSans-67"/>
      <use x="403.222656" xlink:href="#DejaVuSans-108"/>
      <use x="431.005859" xlink:href="#DejaVuSans-111"/>
      <use x="492.1875" xlink:href="#DejaVuSans-117"/>
      <use x="555.566406" xlink:href="#DejaVuSans-100"/>
      <use x="619.042969" xlink:href="#DejaVuSans-32"/>
      <use x="650.830078" xlink:href="#DejaVuSans-70"/>
      <use x="708.240234" xlink:href="#DejaVuSans-114"/>
      <use x="749.353516" xlink:href="#DejaVuSans-97"/>
      <use x="810.632812" xlink:href="#DejaVuSans-99"/>
      <use x="865.613281" xlink:href="#DejaVuSans-116"/>
      <use x="904.822266" xlink:href="#DejaVuSans-105"/>
      <use x="932.605469" xlink:href="#DejaVuSans-111"/>
      <use x="993.787109" xlink:href="#DejaVuSans-110"/>
     </g>
    </g>
   </g>
   <g id="line2d_70">
    <path clip-path="url(#p3b13168259)" d="M 322.778182 319.350947 
L 319.44047 311.24865 
L 316.290102 298.071296 
L 313.289093 285.366522 
L 310.659889 266.108381 
L 308.099269 257.788151 
L 305.792105 250.152585 
L 303.526864 250.036353 
L 301.227302 249.282416 
L 298.740699 253.850261 
L 296.144812 260.226836 
L 293.378153 266.974958 
L 290.472091 275.007225 
L 287.449876 282.160782 
L 284.262674 289.836 
L 280.949134 295.764163 
L 277.490725 301.770785 
L 273.951932 306.39551 
L 270.341 310.908884 
L 266.635854 314.352253 
L 262.906209 317.572464 
L 259.129025 320.138737 
L 255.303238 322.559136 
L 251.083297 326.532077 
L 243.101843 326.888303 
L 234.97725 329.647476 
L 227.150612 331.255744 
L 219.876589 331.86202 
L 212.805798 333.228982 
L 205.423924 334.169604 
L 197.781897 334.97581 
L 190.025007 335.635978 
L 182.08947 336.18824 
L 173.909585 336.797051 
L 165.652227 337.485659 
L 157.296247 338.128422 
L 148.825093 338.681002 
L 140.307073 339.207549 
L 131.801558 339.676043 
" style="fill:none;stroke:#ff0000;stroke-dasharray:1.5,2.475;stroke-dashoffset:0;stroke-width:1.5;"/>
   </g>
   <g id="line2d_71">
    <path clip-path="url(#p3b13168259)" d="M 106.875097 336.112613 
L 123.037966 334.043236 
L 139.200836 332.420002 
L 155.363705 330.677037 
L 171.526575 328.720948 
L 187.689444 325.526895 
L 203.852314 318.395778 
L 220.015183 312.515701 
L 236.178053 310.566506 
L 252.340922 307.838061 
L 268.503791 301.802555 
L 284.666661 263.05648 
L 300.82953 253.574458 
L 316.9924 241.850041 
" style="fill:none;stroke:#0000ff;stroke-dasharray:1.5,2.475;stroke-dashoffset:0;stroke-width:1.5;"/>
   </g>
   <g id="line2d_72">
    <path clip-path="url(#p3b13168259)" d="M 75.59369 341.739282 
L 110.386658 338.634811 
L 141.352865 331.263586 
L 168.425136 321.125499 
L 192.008502 313.837044 
L 212.32468 314.414316 
L 229.983933 312.751797 
L 245.858257 307.035598 
L 260.529331 301.421362 
L 267.241032 298.459705 
L 273.477928 294.452772 
L 279.129466 288.298261 
L 284.300473 281.261788 
L 289.270438 275.789281 
L 294.329876 273.844236 
L 299.630524 277.092942 
L 305.316353 289.60938 
L 311.922729 305.773989 
L 319.631049 318.693265 
" style="fill:none;stroke:#000000;stroke-linecap:square;stroke-width:1.5;"/>
   </g>
   <g id="line2d_73">
    <path clip-path="url(#p3b13168259)" d="M 311.299444 301.072449 
L 310.717773 297.454674 
L 309.829584 290.92123 
L 308.556683 284.076244 
L 306.791102 277.560485 
L 304.382899 271.597109 
L 301.145808 266.503081 
L 296.84843 264.206442 
L 291.226523 267.12932 
L 283.978817 276.825342 
L 274.66102 287.191991 
L 262.700712 296.263362 
L 247.420533 298.889435 
L 228.065439 310.277091 
L 203.925226 318.012818 
L 174.12337 326.274885 
L 137.636641 331.460519 
L 95.457687 335.187485 
" style="fill:none;stroke:#008000;stroke-linecap:square;stroke-width:1.5;"/>
   </g>
   <g id="line2d_74">
    <path clip-path="url(#p3b13168259)" d="M 310.151403 316.968649 
L 309.786056 317.729335 
L 309.289482 314.437558 
L 308.524367 307.503887 
L 307.398234 294.721215 
L 305.866434 281.827858 
L 303.94531 266.101736 
L 301.415066 257.288407 
L 298.168263 256.012216 
L 294.258857 256.627151 
L 289.46684 260.801067 
L 283.524835 268.814496 
L 276.381319 276.630476 
L 268.022547 283.525083 
L 258.480798 287.487021 
L 247.669071 290.184771 
L 235.343701 293.544567 
L 221.843394 293.47981 
L 207.415418 292.230663 
L 191.983673 290.812412 
L 175.331745 288.97674 
L 157.020389 291.838682 
L 137.036004 296.359785 
L 115.614477 301.056631 
L 92.825345 307.032588 
L 69.141818 315.525238 
" style="fill:none;stroke:#bf00bf;stroke-linecap:square;stroke-width:1.5;"/>
   </g>
   <g id="line2d_75">
    <path clip-path="url(#p3b13168259)" d="M 128.925664 298.005839 
L 170.275113 266.959547 
L 206.203315 263.293792 
L 234.784123 259.814752 
L 255.386422 243.300252 
L 268.010047 214.171966 
L 276.496112 206.962423 
L 282.816638 212.734877 
L 288.951209 221.853433 
L 294.599433 231.377998 
L 299.430176 243.003226 
L 301.980122 253.810192 
L 302.52089 263.373147 
" style="fill:none;stroke:#00bfbf;stroke-linecap:square;stroke-width:1.5;"/>
   </g>
   <g id="line2d_76">
    <path clip-path="url(#p3b13168259)" d="M 276.585226 348.478125 
L 276.585226 200.22358 
" style="fill:none;stroke:#000000;stroke-dasharray:5.55,2.4;stroke-dashoffset:0;stroke-width:1.5;"/>
   </g>
   <g id="patch_9">
    <path d="M 56.46 348.478125 
L 56.46 200.22358 
" style="fill:none;stroke:#000000;stroke-linecap:square;stroke-linejoin:miter;stroke-width:0.8;"/>
   </g>
   <g id="patch_10">
    <path d="M 335.46 348.478125 
L 335.46 200.22358 
" style="fill:none;stroke:#000000;stroke-linecap:square;stroke-linejoin:miter;stroke-width:0.8;"/>
   </g>
   <g id="patch_11">
    <path d="M 56.46 348.478125 
L 335.46 348.478125 
" style="fill:none;stroke:#000000;stroke-linecap:square;stroke-linejoin:miter;stroke-width:0.8;"/>
   </g>
   <g id="patch_12">
    <path d="M 56.46 200.22358 
L 335.46 200.22358 
" style="fill:none;stroke:#000000;stroke-linecap:square;stroke-linejoin:miter;stroke-width:0.8;"/>
   </g>
   <g id="legend_2">
    <g id="patch_13">
     <path d="M 345.289687 311.24858 
L 548.830312 311.24858 
Q 550.830312 311.24858 550.830312 309.24858 
L 550.830312 207.22358 
Q 550.830312 205.22358 548.830312 205.22358 
L 345.289687 205.22358 
Q 343.289687 205.22358 343.289687 207.22358 
L 343.289687 309.24858 
Q 343.289687 311.24858 345.289687 311.24858 
z
" style="fill:#ffffff;opacity:0.8;stroke:#cccccc;stroke-linejoin:miter;"/>
    </g>
    <g id="line2d_77">
     <path d="M 347.289687 213.322017 
L 367.289687 213.322017 
" style="fill:none;stroke:#ff0000;stroke-dasharray:1.5,2.475;stroke-dashoffset:0;stroke-width:1.5;"/>
    </g>
    <g id="line2d_78"/>
    <g id="text_32">
     <!-- Global - CCCM -->
     <g transform="translate(375.289687 216.822017)scale(0.1 -0.1)">
      <use xlink:href="#DejaVuSans-71"/>
      <use x="77.490234" xlink:href="#DejaVuSans-108"/>
      <use x="105.273438" xlink:href="#DejaVuSans-111"/>
      <use x="166.455078" xlink:href="#DejaVuSans-98"/>
      <use x="229.931641" xlink:href="#DejaVuSans-97"/>
      <use x="291.210938" xlink:href="#DejaVuSans-108"/>
      <use x="318.994141" xlink:href="#DejaVuSans-32"/>
      <use x="350.78125" xlink:href="#DejaVuSans-45"/>
      <use x="386.865234" xlink:href="#DejaVuSans-32"/>
      <use x="418.652344" xlink:href="#DejaVuSans-67"/>
      <use x="488.476562" xlink:href="#DejaVuSans-67"/>
      <use x="558.300781" xlink:href="#DejaVuSans-67"/>
      <use x="628.125" xlink:href="#DejaVuSans-77"/>
     </g>
    </g>
    <g id="line2d_79">
     <path d="M 347.289687 228.000142 
L 367.289687 228.000142 
" style="fill:none;stroke:#0000ff;stroke-dasharray:1.5,2.475;stroke-dashoffset:0;stroke-width:1.5;"/>
    </g>
    <g id="line2d_80"/>
    <g id="text_33">
     <!-- Global - CALIPSO -->
     <g transform="translate(375.289687 231.500142)scale(0.1 -0.1)">
      <use xlink:href="#DejaVuSans-71"/>
      <use x="77.490234" xlink:href="#DejaVuSans-108"/>
      <use x="105.273438" xlink:href="#DejaVuSans-111"/>
      <use x="166.455078" xlink:href="#DejaVuSans-98"/>
      <use x="229.931641" xlink:href="#DejaVuSans-97"/>
      <use x="291.210938" xlink:href="#DejaVuSans-108"/>
      <use x="318.994141" xlink:href="#DejaVuSans-32"/>
      <use x="350.78125" xlink:href="#DejaVuSans-45"/>
      <use x="386.865234" xlink:href="#DejaVuSans-32"/>
      <use x="418.652344" xlink:href="#DejaVuSans-67"/>
      <use x="488.476562" xlink:href="#DejaVuSans-65"/>
      <use x="556.884766" xlink:href="#DejaVuSans-76"/>
      <use x="612.597656" xlink:href="#DejaVuSans-73"/>
      <use x="642.089844" xlink:href="#DejaVuSans-80"/>
      <use x="702.392578" xlink:href="#DejaVuSans-83"/>
      <use x="765.869141" xlink:href="#DejaVuSans-79"/>
     </g>
    </g>
    <g id="line2d_81">
     <path d="M 347.289687 242.678267 
L 367.289687 242.678267 
" style="fill:none;stroke:#000000;stroke-linecap:square;stroke-width:1.5;"/>
    </g>
    <g id="line2d_82"/>
    <g id="text_34">
     <!-- Global - ECMWF-ERA5 -->
     <g transform="translate(375.289687 246.178267)scale(0.1 -0.1)">
      <use xlink:href="#DejaVuSans-71"/>
      <use x="77.490234" xlink:href="#DejaVuSans-108"/>
      <use x="105.273438" xlink:href="#DejaVuSans-111"/>
      <use x="166.455078" xlink:href="#DejaVuSans-98"/>
      <use x="229.931641" xlink:href="#DejaVuSans-97"/>
      <use x="291.210938" xlink:href="#DejaVuSans-108"/>
      <use x="318.994141" xlink:href="#DejaVuSans-32"/>
      <use x="350.78125" xlink:href="#DejaVuSans-45"/>
      <use x="386.865234" xlink:href="#DejaVuSans-32"/>
      <use x="418.652344" xlink:href="#DejaVuSans-69"/>
      <use x="481.835938" xlink:href="#DejaVuSans-67"/>
      <use x="551.660156" xlink:href="#DejaVuSans-77"/>
      <use x="637.939453" xlink:href="#DejaVuSans-87"/>
      <use x="736.816406" xlink:href="#DejaVuSans-70"/>
      <use x="794.335938" xlink:href="#DejaVuSans-45"/>
      <use x="830.419922" xlink:href="#DejaVuSans-69"/>
      <use x="893.603516" xlink:href="#DejaVuSans-82"/>
      <use x="963.023438" xlink:href="#DejaVuSans-65"/>
      <use x="1031.431641" xlink:href="#DejaVuSans-53"/>
     </g>
    </g>
    <g id="line2d_83">
     <path d="M 347.289687 257.356392 
L 367.289687 257.356392 
" style="fill:none;stroke:#008000;stroke-linecap:square;stroke-width:1.5;"/>
    </g>
    <g id="line2d_84"/>
    <g id="text_35">
     <!-- Global - CMIP6-GFDL-AM4-AMIP -->
     <g transform="translate(375.289687 260.856392)scale(0.1 -0.1)">
      <use xlink:href="#DejaVuSans-71"/>
      <use x="77.490234" xlink:href="#DejaVuSans-108"/>
      <use x="105.273438" xlink:href="#DejaVuSans-111"/>
      <use x="166.455078" xlink:href="#DejaVuSans-98"/>
      <use x="229.931641" xlink:href="#DejaVuSans-97"/>
      <use x="291.210938" xlink:href="#DejaVuSans-108"/>
      <use x="318.994141" xlink:href="#DejaVuSans-32"/>
      <use x="350.78125" xlink:href="#DejaVuSans-45"/>
      <use x="386.865234" xlink:href="#DejaVuSans-32"/>
      <use x="418.652344" xlink:href="#DejaVuSans-67"/>
      <use x="488.476562" xlink:href="#DejaVuSans-77"/>
      <use x="574.755859" xlink:href="#DejaVuSans-73"/>
      <use x="604.248047" xlink:href="#DejaVuSans-80"/>
      <use x="664.550781" xlink:href="#DejaVuSans-54"/>
      <use x="728.173828" xlink:href="#DejaVuSans-45"/>
      <use x="764.304688" xlink:href="#DejaVuSans-71"/>
      <use x="841.794922" xlink:href="#DejaVuSans-70"/>
      <use x="899.314453" xlink:href="#DejaVuSans-68"/>
      <use x="976.316406" xlink:href="#DejaVuSans-76"/>
      <use x="1032.013672" xlink:href="#DejaVuSans-45"/>
      <use x="1068.066406" xlink:href="#DejaVuSans-65"/>
      <use x="1136.474609" xlink:href="#DejaVuSans-77"/>
      <use x="1222.753906" xlink:href="#DejaVuSans-52"/>
      <use x="1286.376953" xlink:href="#DejaVuSans-45"/>
      <use x="1322.429688" xlink:href="#DejaVuSans-65"/>
      <use x="1390.837891" xlink:href="#DejaVuSans-77"/>
      <use x="1477.117188" xlink:href="#DejaVuSans-73"/>
      <use x="1506.609375" xlink:href="#DejaVuSans-80"/>
     </g>
    </g>
    <g id="line2d_85">
     <path d="M 347.289687 272.034517 
L 367.289687 272.034517 
" style="fill:none;stroke:#bf00bf;stroke-linecap:square;stroke-width:1.5;"/>
    </g>
    <g id="line2d_86"/>
    <g id="text_36">
     <!-- Global - CMIP6-MRI_ESM2-AMIP -->
     <g transform="translate(375.289687 275.534517)scale(0.1 -0.1)">
      <use xlink:href="#DejaVuSans-71"/>
      <use x="77.490234" xlink:href="#DejaVuSans-108"/>
      <use x="105.273438" xlink:href="#DejaVuSans-111"/>
      <use x="166.455078" xlink:href="#DejaVuSans-98"/>
      <use x="229.931641" xlink:href="#DejaVuSans-97"/>
      <use x="291.210938" xlink:href="#DejaVuSans-108"/>
      <use x="318.994141" xlink:href="#DejaVuSans-32"/>
      <use x="350.78125" xlink:href="#DejaVuSans-45"/>
      <use x="386.865234" xlink:href="#DejaVuSans-32"/>
      <use x="418.652344" xlink:href="#DejaVuSans-67"/>
      <use x="488.476562" xlink:href="#DejaVuSans-77"/>
      <use x="574.755859" xlink:href="#DejaVuSans-73"/>
      <use x="604.248047" xlink:href="#DejaVuSans-80"/>
      <use x="664.550781" xlink:href="#DejaVuSans-54"/>
      <use x="728.173828" xlink:href="#DejaVuSans-45"/>
      <use x="764.257812" xlink:href="#DejaVuSans-77"/>
      <use x="850.537109" xlink:href="#DejaVuSans-82"/>
      <use x="920.019531" xlink:href="#DejaVuSans-73"/>
      <use x="949.511719" xlink:href="#DejaVuSans-95"/>
      <use x="999.511719" xlink:href="#DejaVuSans-69"/>
      <use x="1062.695312" xlink:href="#DejaVuSans-83"/>
      <use x="1126.171875" xlink:href="#DejaVuSans-77"/>
      <use x="1212.451172" xlink:href="#DejaVuSans-50"/>
      <use x="1276.074219" xlink:href="#DejaVuSans-45"/>
      <use x="1312.126953" xlink:href="#DejaVuSans-65"/>
      <use x="1380.535156" xlink:href="#DejaVuSans-77"/>
      <use x="1466.814453" xlink:href="#DejaVuSans-73"/>
      <use x="1496.306641" xlink:href="#DejaVuSans-80"/>
     </g>
    </g>
    <g id="line2d_87">
     <path d="M 347.289687 286.990767 
L 367.289687 286.990767 
" style="fill:none;stroke:#00bfbf;stroke-linecap:square;stroke-width:1.5;"/>
    </g>
    <g id="line2d_88"/>
    <g id="text_37">
     <!-- Global - CMIP6-CESM2-CAM6-AMIP -->
     <g transform="translate(375.289687 290.490767)scale(0.1 -0.1)">
      <use xlink:href="#DejaVuSans-71"/>
      <use x="77.490234" xlink:href="#DejaVuSans-108"/>
      <use x="105.273438" xlink:href="#DejaVuSans-111"/>
      <use x="166.455078" xlink:href="#DejaVuSans-98"/>
      <use x="229.931641" xlink:href="#DejaVuSans-97"/>
      <use x="291.210938" xlink:href="#DejaVuSans-108"/>
      <use x="318.994141" xlink:href="#DejaVuSans-32"/>
      <use x="350.78125" xlink:href="#DejaVuSans-45"/>
      <use x="386.865234" xlink:href="#DejaVuSans-32"/>
      <use x="418.652344" xlink:href="#DejaVuSans-67"/>
      <use x="488.476562" xlink:href="#DejaVuSans-77"/>
      <use x="574.755859" xlink:href="#DejaVuSans-73"/>
      <use x="604.248047" xlink:href="#DejaVuSans-80"/>
      <use x="664.550781" xlink:href="#DejaVuSans-54"/>
      <use x="728.173828" xlink:href="#DejaVuSans-45"/>
      <use x="764.257812" xlink:href="#DejaVuSans-67"/>
      <use x="834.082031" xlink:href="#DejaVuSans-69"/>
      <use x="897.265625" xlink:href="#DejaVuSans-83"/>
      <use x="960.742188" xlink:href="#DejaVuSans-77"/>
      <use x="1047.021484" xlink:href="#DejaVuSans-50"/>
      <use x="1110.644531" xlink:href="#DejaVuSans-45"/>
      <use x="1146.728516" xlink:href="#DejaVuSans-67"/>
      <use x="1216.552734" xlink:href="#DejaVuSans-65"/>
      <use x="1284.960938" xlink:href="#DejaVuSans-77"/>
      <use x="1371.240234" xlink:href="#DejaVuSans-54"/>
      <use x="1434.863281" xlink:href="#DejaVuSans-45"/>
      <use x="1470.916016" xlink:href="#DejaVuSans-65"/>
      <use x="1539.324219" xlink:href="#DejaVuSans-77"/>
      <use x="1625.603516" xlink:href="#DejaVuSans-73"/>
      <use x="1655.095703" xlink:href="#DejaVuSans-80"/>
     </g>
    </g>
    <g id="line2d_89">
     <path d="M 347.289687 301.668892 
L 367.289687 301.668892 
" style="fill:none;stroke:#000000;stroke-dasharray:5.55,2.4;stroke-dashoffset:0;stroke-width:1.5;"/>
    </g>
    <g id="line2d_90"/>
    <g id="text_38">
     <!-- 273K -->
     <g transform="translate(375.289687 305.168892)scale(0.1 -0.1)">
      <use xlink:href="#DejaVuSans-50"/>
      <use x="63.623047" xlink:href="#DejaVuSans-55"/>
      <use x="127.246094" xlink:href="#DejaVuSans-51"/>
      <use x="190.869141" xlink:href="#DejaVuSans-75"/>
     </g>
    </g>
   </g>
  </g>
 </g>
 <defs>
  <clipPath id="p013e5f3bc6">
   <rect height="148.254545" width="279" x="56.46" y="22.318125"/>
  </clipPath>
  <clipPath id="p3b13168259">
   <rect height="148.254545" width="279" x="56.46" y="200.22358"/>
  </clipPath>
 </defs>
</svg>
